<svg xmlns="http://www.w3.org/2000/svg" viewBox="0 0 179 55"><path d="M5.5 0h167.63c3.04 0 5.5 2.46 5.5 5.5v44c0 3.04-2.46 5.5-5.5 5.5H5.5C2.46 55 0 52.54 0 49.5v-44C0 2.46 2.46 0 5.5 0z" fill="none"/><text x="52" y="19" fill="#fff"><tspan font-size="14" font-weight="400" font-family="Myriad Pro">Download on the</tspan> </text><text x="52" y="41" fill="#fff"><tspan font-size="25" font-weight="600" font-family="Myriad Pro">App Store</tspan></text><path d="M33.11 16.82c3.93 0 6.44 3.77 6.44 3.77s-3.83 2.06-3.83 6.54c0 5.32 4.81 6.87 4.81 6.87s-3.79 8.94-8.06 8.94c-2.4 0-2.56-1.37-5.75-1.37-2.77 0-3.7 1.37-5.81 1.37-4.03 0-9.23-8.72-9.23-15.81 0-7.36 5.26-10.31 8.57-10.31 2.9 0 4.1 1.69 6.44 1.69 1.96 0 3.51-1.69 6.42-1.69zm-.67-7.51c.57 3.61-2.73 8.07-6.67 7.93-.58-4.59 3.67-7.69 6.67-7.93z" fill-rule="evenodd" fill="#fff"/></svg>