<svg xmlns="http://www.w3.org/2000/svg" viewBox="0 0 179 55"><defs><linearGradient gradientTransform="matrix(.2646 0 0 .2556 -19.91 -42.232)" y2="206.75" x2="159.238" y1="335.717" x1="159.238" gradientUnits="userSpaceOnUse" id="d"><stop offset="0" stop-color="#84E9DB"/><stop offset="1" stop-color="#197491"/></linearGradient><linearGradient gradientTransform="matrix(.2646 0 0 .2556 -19.91 -42.232)" y2="196.306" x2="140.339" y1="261.67" x1="203.46" gradientUnits="userSpaceOnUse" id="c"><stop offset="0" stop-color="#E6FFAB"/><stop offset="1" stop-color="#47BEBC"/></linearGradient><linearGradient gradientTransform="matrix(.2646 0 0 .2556 -19.91 -42.232)" y2="346.37" x2="140.995" y1="279.738" x1="203.13" gradientUnits="userSpaceOnUse" id="b"><stop offset="0" stop-color="#E74047"/><stop offset="1" stop-color="#7F50A0"/></linearGradient><linearGradient gradientTransform="matrix(.2646 0 0 .2556 -19.91 -42.232)" y2="252.479" x2="210.539" y1="284.507" x1="226.858" gradientUnits="userSpaceOnUse" id="a"><stop offset="0" stop-color="#FCD08F"/><stop offset="1" stop-color="#F79673"/></linearGradient></defs><path fill="none" fill-rule="evenodd" d="M5.87 0H173.5c3.04 0 5.5 2.46 5.5 5.5v44c0 3.04-2.46 5.5-5.5 5.5H5.87c-3.04 0-5.5-2.46-5.5-5.5v-44C.37 2.46 2.83 0 5.87 0z"/><path d="M155.64 46.75c-.47 1.13-2.43 1.67-3.82 1.67-.62 0-1.24-.37-1.24-.37l.34-.96s.32.17.93.17c.61 0 1.67-1.41 1.67-1.41l.77-1.85-4.15-11h1.38l3.5 9.33 3.37-9.33h1.37s-3.65 12.63-4.12 13.75zm-8.24-4.12s-1.74 1.55-4.3 1.55c-2.56 0-3.61-1.34-3.61-3.22 0-1.88 1.66-3.83 5.16-3.83h2.75v-1.38s-.21-1.86-3.21-1.86c-2.99 0-2.93 2.09-2.93 2.09h-1.32s.12-3.05 4.28-3.05c4.17 0 4.55 2.82 4.55 2.82V44h-1.37v-1.37zm0-4.13h-2.75c-2.09 0-3.86 1.11-3.86 2.56s1.1 2.07 2.42 2.07c1.32 0 4.19-1.09 4.19-3.25V38.5zm-11-9.62h1.38V44h-1.38V28.88zm-6.37 15.3c-2.65 0-3.2-1.48-3.24-1.55v5.5h-1.38V33h1.38v1.38c.04-.06.92-1.45 3.21-1.45 2.32 0 4.83 1.56 4.83 5.54 0 3.97-2.09 5.71-4.8 5.71zm-.06-10.22c-2.16 0-3.14 3.11-3.18 3.17v2.75c.04.07.8 3.3 3.02 3.3 2.25 0 3.76-2.02 3.76-4.63 0-2.6-1.64-4.59-3.6-4.59zm-13.33 8.77c1.48 0 2.8-.78 2.8-.78S118.19 44 115.41 44c-3.96 0-5.55-3-5.55-5.68 0-2.67 1.8-5.39 5.27-5.39 3.46 0 4.03 2.91 4.03 2.91l-5.39 2.15-1.8.1c.47 2.8 2.71 4.64 4.67 4.64zm.05-6.82c.18-.32-.19-2.13-2.2-2.13-1.01 0-2.61.92-2.61 3.22 0 .38.03.73.09 1.08.23-.1 4.55-1.86 4.72-2.17zM108.92 44h-4.12s1.37-.85 1.37-1.37V28.88h-1.37l.92-1.4 3.2.02c-.79.42-1.35.79-1.37 2.75-.02 1.96 0 11 0 11 0 .75.98 1.84 1.57 1.84.53 0 .78.11.78.11l-.98.8zm-7.24-9.79s1.46.96 1.46 3.11c0 1.45-.74 2.26-1.55 3.02-.81.77-.82 1.05-.82 1.38 0 .34.22.72 1.36 1.5 1.14.79 1.93 1.91 1.93 3.37 0 3.08-3.84 4.29-6.08 4.29-2.25 0-4.98-.91-4.98-3.33 0-3.99 6.25-4 6.25-4s-.66-.69-.66-1.46c0-.48.16-.83.16-.83s-.19.05-.47.05c-2.71 0-4.08-1.93-4.08-3.54 0-2.3 2.09-4.43 4.86-4.43h5.39l-1.38.82-1.39.05zM99.2 44.26c-.43 0-4.14.23-4.14 2.78s3.22 2.84 3.98 2.84c.75 0 3.38-.21 3.38-2.47 0-1.58-1.27-2.08-2.41-3.09 0 0-.37-.06-.81-.06zm-.94-10.09c-1.3 0-2.04 1.05-2.04 2.53 0 1.47 1.3 3.91 2.94 3.91s1.95-1.28 1.95-2.23c0-2.72-1.54-4.21-2.85-4.21zM87.06 44c-3.47 0-5.43-2.92-5.43-5.34 0-3.37 2.6-5.68 5.79-5.68s5.55 2.21 5.55 5.47c0 3.25-2.43 5.55-5.91 5.55zm-.28-10.32c-1.61 0-3 1.47-3 3.52 0 2.04 1.24 6.1 3.87 6.1 2.64 0 3-2.69 3-3.77 0-3.15-1.58-5.85-3.87-5.85zM74.65 44c-3.47 0-5.44-2.92-5.44-5.35 0-3.37 2.6-5.68 5.79-5.68s5.56 2.22 5.56 5.47c0 3.26-2.44 5.56-5.91 5.56zm-.28-10.32c-1.61 0-3 1.46-3 3.51s1.24 6.11 3.87 6.11 3-2.69 3-3.77c0-3.15-1.58-5.85-3.87-5.85zm-12.48 5.88l1.69-1.06h5.49s-1.63.59-1.63 1.9v2.68s-3.45 1.13-6.53 1.13c-5.94 0-8.34-4.36-8.34-7.81 0-3.95 3.17-8.12 8.61-8.12 4.47 0 6.26 1.81 6.26 1.81l-1.79 1.69-.83.22.52-.84s-1.59-2.08-4.41-2.08c-2.81 0-6.05 1.91-6.05 6.43 0 3.71 3 7.77 7.64 7.77 1.6 0 2.66-.6 2.66-.6v-3.32s-2.39-.03-3.29.2z" fill-rule="evenodd" fill="#fff"/><text x="54" y="20" fill="#fff" font-family="Myriad Pro" font-size="14" font-weight="400"><tspan>Get it on</tspan></text><path d="M36.688 32.175c4.048-2.147 7.144-3.783 7.41-3.91.845-.435 1.72-1.585 0-2.48-.557-.28-3.547-1.866-7.41-3.91l-5.32 5.163 5.32 5.137z" class="st0" fill="url(#a)"/><path d="M31.37 27.038L14.38 43.575c.37.052.847-.05 1.376-.332 1.11-.588 12.912-6.824 20.93-11.068l-5.32-5.137z" class="st1" fill="url(#b)"/><path d="M31.37 27.038l5.318-5.164s-19.74-10.403-20.93-11.016c-.45-.23-.953-.332-1.376-.23l16.987 16.41z" class="st2" fill="url(#c)"/><path d="M31.37 27.038L14.355 10.602c-.715.154-1.27.74-1.27 1.917v29.087c0 1.1.45 1.892 1.296 1.968L31.37 27.038z" class="st3" fill="url(#d)"/></svg>