<svg version="1.1" xmlns="http://www.w3.org/2000/svg" xmlns:xlink="http://www.w3.org/1999/xlink" width="12" height="7" viewBox="0 0 12 7"><path id="Shape-51" d="M1.924,6.434 L1.901,0.582 L3.498,0.580 L3.521,6.432 L1.924,6.434 zM8.499,6.425 L8.476,0.574 L10.072,0.572 L10.095,6.424 L8.499,6.425 zM10.621,5.857 L10.621,5.511 C10.621,5.511 11.732,5.511 11.732,5.511 C11.803,5.511 11.870,5.480 11.920,5.426 C11.969,5.373 11.996,5.301 11.996,5.226 C11.996,5.226 11.984,1.767 11.984,1.767 C11.982,1.612 11.864,1.484 11.718,1.484 C11.718,1.484 11.718,1.484 11.718,1.484 L10.604,1.484 C10.604,1.484 10.600,0.287 10.600,0.287 C10.600,0.131 10.481,0.003 10.335,0.003 C10.335,0.003 10.335,0.003 10.335,0.003 C10.335,0.003 8.210,0.006 8.210,0.006 C8.139,0.006 8.072,0.035 8.022,0.089 C7.973,0.142 7.946,0.214 7.946,0.289 C7.946,0.289 7.954,2.377 7.954,2.377 L7.131,2.378 L6.602,2.378 L4.033,2.383 C4.033,2.383 4.025,0.295 4.025,0.295 C4.025,0.138 3.905,0.010 3.760,0.010 C3.760,0.010 3.760,0.010 3.760,0.010 C3.760,0.010 1.635,0.012 1.635,0.012 C1.565,0.012 1.496,0.042 1.448,0.096 C1.397,0.149 1.370,0.221 1.370,0.297 C1.370,0.297 1.375,1.495 1.375,1.495 C1.375,1.495 0.264,1.496 0.264,1.496 C0.118,1.496 -0.001,1.624 0.001,1.781 C0.001,1.781 0.014,5.237 0.014,5.237 C0.014,5.312 0.043,5.385 0.091,5.439 C0.141,5.492 0.208,5.522 0.279,5.522 C0.279,5.522 0.279,5.522 0.279,5.522 L1.392,5.521 C1.392,5.521 1.396,6.720 1.396,6.720 C1.397,6.875 1.516,7.004 1.661,7.004 C1.661,7.004 1.662,7.004 1.662,7.004 C1.662,7.004 3.788,7.001 3.788,7.001 C3.857,7.001 3.924,6.972 3.975,6.919 C4.025,6.865 4.051,6.793 4.051,6.716 C4.051,6.716 4.044,4.629 4.044,4.629 L7.965,4.624 C7.965,4.624 7.973,6.713 7.973,6.713 C7.973,6.868 8.092,6.997 8.238,6.998 C8.238,6.998 8.238,6.998 8.238,6.998 C8.238,6.998 10.364,6.994 10.364,6.994 C10.433,6.994 10.500,6.964 10.550,6.911 C10.601,6.858 10.627,6.785 10.627,6.710 C10.627,6.710 10.626,6.429 10.626,6.429 L10.621,5.857 z" fill="#FFFFFF" /></svg>