<svg version="1.1" xmlns="http://www.w3.org/2000/svg" xmlns:xlink="http://www.w3.org/1999/xlink" width="10" height="9" viewBox="0 0 10 9"><g id="Comment-Bubble-O" ><path id="Comment-Bubble-O-fill" d="M0.559,8.815 C0.611,8.928 0.722,9.000 0.844,9.000 C1.748,9.000 2.512,8.775 3.381,8.251 C3.802,8.319 4.634,8.404 5.000,8.404 C7.757,8.404 10.000,6.519 10.000,4.202 C10.000,1.884 7.757,0.000 5.000,0.000 C2.242,0.000 -0.000,1.884 -0.000,4.202 C-0.000,5.294 0.514,6.350 1.420,7.132 C1.215,7.608 0.941,8.059 0.603,8.471 C0.525,8.568 0.507,8.702 0.559,8.815 z" fill="#E54D42" /><path id="Comment-Bubble-O-stroke" d="M0.884,8.442 C0.932,8.546 1.035,8.611 1.148,8.611 C1.986,8.611 2.694,8.406 3.499,7.927 C3.890,7.989 4.661,8.067 5.000,8.067 C7.555,8.067 9.634,6.345 9.634,4.227 C9.634,2.110 7.555,0.389 5.000,0.389 C2.444,0.389 0.365,2.110 0.365,4.227 C0.365,5.225 0.842,6.190 1.681,6.904 C1.491,7.340 1.237,7.752 0.924,8.128 C0.852,8.217 0.836,8.339 0.884,8.442 z" fill="none" stroke="#FFFFFF" stroke-opacity="1.000" stroke-width="1" /></g></svg>