<svg version="1" xmlns="http://www.w3.org/2000/svg" viewBox="0 0 15.2 17"><path fill="#fff" d="M15.2 3l-1.4-1.4-4.6 4.5.5 1.1-1.5 1.5-1.1-.4-.8.7c-.8.9-1.3 2.1-1.3 3.3 0 1.1.4 2.1 1 2.9h-.2c-.5 0-1 .4-1 1 0 .5.4 1 1 1s1-.4 1-1V16c.8.6 1.8 1.1 2.9 1.1 2.5 0 4.6-2.1 4.6-4.6 0-.8-.2-1.5-.5-2.1-.9-2.4-.4-5 1.4-6.9V3zM5.5 5.4c.3-.3.2-.8-.1-1L2.2 1.6c-.3-.3-.8-.2-1 .1-.3.3-.2.8.1 1.1l3.2 2.7c.3.2.8.2 1-.1zM6 3.4c.2.4.6.5 1 .3s.5-.6.3-1L6.1.4C6 0 5.5-.1 5.2.1s-.5.6-.4.9L6 3.4zM3.4 6.1L1 5c-.4-.2-.8 0-1 .3-.2.4 0 .8.3 1l2.4 1.1c.4.2.8 0 1-.3.2-.4.1-.8-.3-1z"/></svg>