<svg version="1.1" xmlns="http://www.w3.org/2000/svg" xmlns:xlink="http://www.w3.org/1999/xlink" width="10" height="11" viewBox="0 0 10 11"><path id="Calendar.-Attrib" d="M9.084,11.000 C9.084,11.000 0.916,11.000 0.916,11.000 C0.410,11.000 -0.001,10.553 -0.001,10.008 C-0.001,10.008 -0.001,2.210 -0.001,2.210 C-0.001,1.676 0.401,1.241 0.890,1.225 C0.890,1.225 0.890,2.556 0.890,2.556 C0.890,3.157 1.343,3.642 1.902,3.642 C1.902,3.642 2.541,3.642 2.541,3.642 C3.100,3.642 3.560,3.157 3.560,2.556 C3.560,2.556 3.560,1.220 3.560,1.220 L6.440,1.220 C6.440,1.220 6.440,2.556 6.440,2.556 C6.440,3.157 6.900,3.642 7.459,3.642 C7.459,3.642 8.098,3.642 8.098,3.642 C8.657,3.642 9.111,3.157 9.111,2.556 C9.111,2.556 9.111,1.225 9.111,1.225 C9.599,1.241 10.001,1.676 10.001,2.210 C10.001,2.210 10.001,10.008 10.001,10.008 C10.001,10.552 9.590,11.000 9.084,11.000 zM8.814,9.523 C8.814,9.523 8.814,5.495 8.814,5.495 C8.814,5.259 8.636,5.068 8.417,5.068 C8.417,5.068 1.565,5.068 1.565,5.068 C1.346,5.068 1.169,5.259 1.169,5.495 C1.169,5.495 1.169,9.523 1.169,9.523 C1.169,9.758 1.346,9.949 1.565,9.949 C1.565,9.949 8.417,9.949 8.417,9.949 C8.636,9.949 8.814,9.758 8.814,9.523 C8.814,9.523 8.814,9.523 8.814,9.523 zM7.430,9.367 C7.430,9.367 6.620,9.367 6.620,9.367 C6.491,9.367 6.388,9.255 6.388,9.118 C6.388,9.118 6.388,8.246 6.388,8.246 C6.388,8.108 6.491,7.997 6.620,7.997 C6.620,7.997 7.430,7.997 7.430,7.997 C7.558,7.997 7.662,8.108 7.662,8.246 C7.662,8.246 7.662,9.118 7.662,9.118 C7.662,9.255 7.558,9.367 7.430,9.367 zM7.430,7.190 C7.430,7.190 6.620,7.190 6.620,7.190 C6.491,7.190 6.388,7.078 6.388,6.940 C6.388,6.940 6.388,6.069 6.388,6.069 C6.388,5.931 6.491,5.819 6.620,5.819 C6.620,5.819 7.430,5.819 7.430,5.819 C7.558,5.819 7.662,5.931 7.662,6.069 C7.662,6.069 7.662,6.940 7.662,6.940 C7.662,7.078 7.558,7.190 7.430,7.190 zM5.405,9.367 C5.405,9.367 4.595,9.367 4.595,9.367 C4.467,9.367 4.363,9.255 4.363,9.118 C4.363,9.118 4.363,8.246 4.363,8.246 C4.363,8.108 4.467,7.997 4.595,7.997 C4.595,7.997 5.405,7.997 5.405,7.997 C5.533,7.997 5.637,8.108 5.637,8.246 C5.637,8.246 5.637,9.118 5.637,9.118 C5.637,9.255 5.533,9.367 5.405,9.367 zM5.405,7.190 C5.405,7.190 4.595,7.190 4.595,7.190 C4.467,7.190 4.363,7.078 4.363,6.940 C4.363,6.940 4.363,6.069 4.363,6.069 C4.363,5.931 4.467,5.819 4.595,5.819 C4.595,5.819 5.405,5.819 5.405,5.819 C5.533,5.819 5.637,5.931 5.637,6.069 C5.637,6.069 5.637,6.940 5.637,6.940 C5.637,7.078 5.533,7.190 5.405,7.190 zM3.380,9.367 C3.380,9.367 2.570,9.367 2.570,9.367 C2.442,9.367 2.338,9.255 2.338,9.118 C2.338,9.118 2.338,8.246 2.338,8.246 C2.338,8.108 2.442,7.997 2.570,7.997 C2.570,7.997 3.380,7.997 3.380,7.997 C3.509,7.997 3.612,8.108 3.612,8.246 C3.612,8.246 3.612,9.118 3.612,9.118 C3.612,9.255 3.509,9.367 3.380,9.367 zM3.380,7.190 C3.380,7.190 2.570,7.190 2.570,7.190 C2.442,7.190 2.338,7.078 2.338,6.940 C2.338,6.940 2.338,6.069 2.338,6.069 C2.338,5.931 2.442,5.819 2.570,5.819 C2.570,5.819 3.380,5.819 3.380,5.819 C3.509,5.819 3.612,5.931 3.612,6.069 C3.612,6.069 3.612,6.940 3.612,6.940 C3.612,7.078 3.509,7.190 3.380,7.190 zM8.083,2.928 C8.083,2.928 7.451,2.928 7.451,2.928 C7.259,2.928 7.103,2.761 7.103,2.555 C7.103,2.555 7.103,0.374 7.103,0.374 C7.103,0.167 7.259,0.000 7.451,0.000 C7.451,0.000 8.083,0.000 8.083,0.000 C8.274,0.000 8.430,0.167 8.430,0.374 C8.430,0.374 8.430,2.555 8.430,2.555 C8.430,2.761 8.274,2.928 8.083,2.928 zM2.532,2.928 C2.532,2.928 1.900,2.928 1.900,2.928 C1.708,2.928 1.553,2.761 1.553,2.555 C1.553,2.555 1.553,0.374 1.553,0.374 C1.553,0.167 1.708,0.000 1.900,0.000 C1.900,0.000 2.532,0.000 2.532,0.000 C2.724,0.000 2.879,0.167 2.879,0.374 C2.879,0.374 2.879,2.555 2.879,2.555 C2.879,2.761 2.724,2.928 2.532,2.928 z" fill="#FFFFFF" /></svg>