<svg version="1.1" xmlns="http://www.w3.org/2000/svg" xmlns:xlink="http://www.w3.org/1999/xlink" width="10" height="8" viewBox="0 0 10 8"><path id="New-Email-Envelo" d="M8.750,-0.000 C8.750,-0.000 1.250,-0.000 1.250,-0.000 C0.560,-0.000 0.000,0.551 0.000,1.231 C0.000,1.231 0.000,6.769 0.000,6.769 C0.000,7.449 0.560,8.000 1.250,8.000 C1.250,8.000 8.750,8.000 8.750,8.000 C9.440,8.000 10.000,7.449 10.000,6.769 C10.000,6.769 10.000,1.231 10.000,1.231 C10.000,0.551 9.440,-0.000 8.750,-0.000 zM7.674,1.231 L5.008,3.377 L2.354,1.231 L7.674,1.231 zM8.750,6.769 L1.250,6.769 L1.250,1.964 L5.008,5.171 L8.750,1.987 L8.750,6.769 z" fill="#FFFFFF" /></svg>