<?xml version="1.0" encoding="utf-8"?>
<!-- Generator: Avocode 2.6.0 - http://avocode.com -->
<svg height="11" width="12" xmlns:xlink="http://www.w3.org/1999/xlink" xmlns="http://www.w3.org/2000/svg" viewBox="0 0 12 11">
    <path fill="#ffffff" fill-rule="evenodd" d="M 6.73 11 C 6.73 11 5.27 11 5.27 11 C 4.99 11 4.75 10.8 4.72 10.54 C 4.72 10.54 4.57 9.72 4.57 9.72 C 4.29 9.64 4.02 9.54 3.76 9.41 C 3.76 9.41 3.01 9.9 3.01 9.9 C 2.92 9.97 2.8 10.01 2.67 10.01 C 2.52 10.01 2.38 9.96 2.27 9.86 C 2.27 9.86 1.25 8.92 1.25 8.92 C 1.04 8.73 1.02 8.44 1.21 8.23 C 1.21 8.23 1.73 7.56 1.73 7.56 C 1.6 7.32 1.48 7.07 1.4 6.81 C 1.4 6.81 0.49 6.68 0.49 6.68 C 0.22 6.65 0 6.43 0 6.17 C 0 6.17 0 4.84 0 4.84 C 0 4.57 0.22 4.35 0.51 4.33 C 0.51 4.33 1.4 4.19 1.4 4.19 C 1.48 3.93 1.6 3.69 1.73 3.45 C 1.73 3.45 1.2 2.76 1.2 2.76 C 1.02 2.57 1.04 2.27 1.25 2.09 C 1.25 2.09 2.27 1.15 2.27 1.15 C 2.47 0.96 2.81 0.95 3.02 1.11 C 3.02 1.11 3.76 1.59 3.76 1.59 C 4.02 1.47 4.29 1.36 4.57 1.29 C 4.57 1.29 4.72 0.46 4.72 0.46 C 4.75 0.2 4.99 0.01 5.27 0.01 C 5.27 0.01 6.73 0.01 6.73 0.01 C 7.01 0.01 7.25 0.2 7.28 0.47 C 7.28 0.47 7.43 1.29 7.43 1.29 C 7.71 1.36 7.98 1.47 8.24 1.59 C 8.24 1.59 8.99 1.1 8.99 1.1 C 9.08 1.04 9.2 1 9.33 1 C 9.48 1 9.62 1.05 9.73 1.15 C 9.73 1.15 10.75 2.09 10.75 2.09 C 10.96 2.27 10.98 2.57 10.79 2.77 C 10.79 2.77 10.27 3.45 10.27 3.45 C 10.4 3.69 10.52 3.93 10.6 4.19 C 10.6 4.19 11.51 4.33 11.51 4.33 C 11.78 4.35 12 4.57 12 4.84 C 12 4.84 12 6.17 12 6.17 C 12 6.43 11.78 6.65 11.49 6.68 C 11.49 6.68 10.6 6.81 10.6 6.81 C 10.52 7.07 10.4 7.32 10.27 7.56 C 10.27 7.56 10.8 8.24 10.8 8.24 C 10.98 8.44 10.96 8.73 10.75 8.92 C 10.75 8.92 9.73 9.86 9.73 9.86 C 9.53 10.04 9.19 10.06 8.98 9.89 C 8.98 9.89 8.24 9.41 8.24 9.41 C 7.98 9.54 7.71 9.64 7.43 9.72 C 7.43 9.72 7.28 10.55 7.28 10.55 C 7.25 10.8 7.01 11 6.73 11 Z M 3.74 9.02 C 3.78 9.02 3.81 9.02 3.84 9.04 C 4.14 9.2 4.46 9.32 4.8 9.4 C 4.87 9.42 4.93 9.48 4.94 9.55 C 4.94 9.55 5.11 10.49 5.11 10.49 C 5.12 10.58 5.19 10.64 5.27 10.64 C 5.27 10.64 6.73 10.64 6.73 10.64 C 6.81 10.64 6.88 10.58 6.89 10.5 C 6.89 10.5 7.06 9.55 7.06 9.55 C 7.07 9.48 7.13 9.42 7.2 9.4 C 7.54 9.32 7.86 9.2 8.16 9.04 C 8.23 9.01 8.31 9.01 8.37 9.05 C 8.37 9.05 9.22 9.61 9.22 9.61 C 9.3 9.67 9.39 9.66 9.45 9.6 C 9.45 9.6 10.47 8.66 10.47 8.66 C 10.53 8.61 10.54 8.52 10.49 8.46 C 10.49 8.46 9.87 7.68 9.87 7.68 C 9.83 7.62 9.82 7.54 9.86 7.48 C 10.03 7.21 10.16 6.91 10.26 6.61 C 10.28 6.54 10.34 6.49 10.42 6.48 C 10.42 6.48 11.44 6.32 11.44 6.32 C 11.54 6.31 11.6 6.24 11.6 6.17 C 11.6 6.17 11.6 4.84 11.6 4.84 C 11.6 4.76 11.54 4.7 11.45 4.69 C 11.45 4.69 10.42 4.53 10.42 4.53 C 10.34 4.52 10.28 4.47 10.26 4.4 C 10.16 4.1 10.03 3.8 9.86 3.52 C 9.82 3.46 9.83 3.39 9.87 3.33 C 9.87 3.33 10.48 2.55 10.48 2.55 C 10.54 2.49 10.53 2.4 10.47 2.34 C 10.47 2.34 9.45 1.4 9.45 1.4 C 9.39 1.35 9.29 1.35 9.23 1.39 C 9.23 1.39 8.37 1.95 8.37 1.95 C 8.31 2 8.23 2 8.16 1.97 C 7.86 1.81 7.54 1.69 7.2 1.6 C 7.13 1.58 7.07 1.53 7.06 1.46 C 7.06 1.46 6.89 0.52 6.89 0.52 C 6.88 0.43 6.81 0.37 6.73 0.37 C 6.73 0.37 5.27 0.37 5.27 0.37 C 5.19 0.37 5.12 0.43 5.11 0.5 C 5.11 0.5 4.94 1.46 4.94 1.46 C 4.93 1.53 4.87 1.58 4.8 1.6 C 4.46 1.69 4.14 1.81 3.84 1.96 C 3.77 2 3.69 2 3.63 1.95 C 3.63 1.95 2.78 1.4 2.78 1.4 C 2.7 1.34 2.61 1.35 2.55 1.4 C 2.55 1.4 1.53 2.34 1.53 2.34 C 1.47 2.4 1.46 2.48 1.51 2.54 C 1.51 2.54 2.13 3.33 2.13 3.33 C 2.17 3.39 2.18 3.46 2.14 3.52 C 1.97 3.8 1.84 4.09 1.74 4.4 C 1.72 4.47 1.66 4.52 1.58 4.53 C 1.58 4.53 0.56 4.69 0.56 4.69 C 0.46 4.7 0.4 4.76 0.4 4.84 C 0.4 4.84 0.4 6.17 0.4 6.17 C 0.4 6.25 0.46 6.31 0.55 6.32 C 0.55 6.32 1.58 6.48 1.58 6.48 C 1.66 6.49 1.72 6.54 1.74 6.61 C 1.84 6.91 1.97 7.2 2.14 7.48 C 2.18 7.54 2.17 7.62 2.13 7.68 C 2.13 7.68 1.52 8.45 1.52 8.45 C 1.46 8.52 1.46 8.61 1.53 8.66 C 1.53 8.66 2.55 9.6 2.55 9.6 C 2.61 9.66 2.71 9.66 2.77 9.61 C 2.77 9.61 3.63 9.05 3.63 9.05 C 3.66 9.03 3.7 9.02 3.74 9.02 Z M 6 7.68 C 4.69 7.68 3.63 6.7 3.63 5.5 C 3.63 4.3 4.69 3.33 6 3.33 C 7.31 3.33 8.37 4.3 8.37 5.5 C 8.37 6.7 7.31 7.68 6 7.68 Z M 6 3.69 C 4.91 3.69 4.02 4.5 4.02 5.5 C 4.02 6.5 4.91 7.31 6 7.31 C 7.09 7.31 7.98 6.5 7.98 5.5 C 7.98 4.5 7.09 3.69 6 3.69 Z" />
</svg>