<?xml version="1.0" encoding="UTF-8"?>
<svg width="18px" height="18px" viewBox="0 0 18 18" version="1.1" xmlns="http://www.w3.org/2000/svg" xmlns:xlink="http://www.w3.org/1999/xlink">
    <!-- Generator: Sketch 42 (36781) - http://www.bohemiancoding.com/sketch -->
    <title>all</title>
    <desc>Created with Sketch.</desc>
    <defs></defs>
    <g id="Profile" stroke="none" stroke-width="1" fill="none" fill-rule="evenodd">
        <g id="Certification---Profile" transform="translate(-863.000000, -715.000000)" fill="#000000">
            <g id="all" transform="translate(863.000000, 715.000000)">
                <path d="M1.4,17.4 C0.751,17.4 0.223,16.872 0.223,16.223 L0.223,1.338 C0.223,0.688 0.751,0.161 1.4,0.161 C1.4,0.161 6.18,0.161 6.18,0.161 C6.18,0.161 6.18,0.881 6.18,0.881 L1.4,0.881 C1.14783403,0.881549982 0.943549982,1.08583403 0.943,1.338 L0.943,16.223 C0.943,16.475 1.148,16.68 1.4,16.68 L16.285,16.68 C16.537166,16.67945 16.74145,16.475166 16.742,16.223 L16.742,1.338 C16.74145,1.08583403 16.537166,0.881549982 16.285,0.881 L6.18,0.881 L6.18,0.161 L16.285,0.161 C16.934,0.161 17.462,0.689 17.462,1.338 L17.462,16.223 C17.462,16.873 16.934,17.4 16.285,17.4" id="Shape"></path>
                <path d="M8.88931689,5.272 C8.27987062,5.24644686 7.79895751,4.74540353 7.79895751,4.136 C7.79895751,3.52659647 8.27987062,3.02555314 8.88931689,3 C9.49434955,3.03107969 9.96895759,3.53024337 9.96895759,4.1355 C9.96895759,4.74075663 9.49434955,5.23992031 8.88931689,5.271 L8.88931689,5.272 Z M8.88931689,3.72 C8.73586404,3.71247672 8.59073262,3.78998405 8.51174951,3.92163961 C8.43276639,4.05329517 8.43276639,4.21770483 8.51174951,4.34936039 C8.59073262,4.48101595 8.73586404,4.55852328 8.88931689,4.551 C9.1110852,4.54012744 9.28530296,4.35732434 9.28530296,4.1355 C9.28530296,3.91367566 9.1110852,3.73087256 8.88931689,3.72 L8.88931689,3.72 Z" id="Shape"></path>
                <path d="M4.08932401,5.272 C3.48045645,5.24644686 3,4.74540353 3,4.136 C3,3.52659647 3.48045645,3.02555314 4.08932401,3 C4.69378215,3.03107969 5.16793951,3.53024337 5.16793951,4.1355 C5.16793951,4.74075663 4.69378215,5.23992031 4.08932401,5.271 L4.08932401,5.272 Z M4.08932401,3.72 C3.93601687,3.71247672 3.79102327,3.78998405 3.71211515,3.92163961 C3.63320703,4.05329517 3.63320703,4.21770483 3.71211515,4.34936039 C3.79102327,4.48101595 3.93601687,4.55852328 4.08932401,4.551 C4.31088174,4.54012744 4.48493406,4.35732434 4.48493406,4.1355 C4.48493406,3.91367566 4.31088174,3.73087256 4.08932401,3.72 L4.08932401,3.72 Z" id="Shape"></path>
                <path d="M13.6892996,5.26999998 C13.080432,5.24446934 12.5999756,4.74386707 12.5999756,4.13499999 C12.5999756,3.52613291 13.080432,3.02553064 13.6892996,3 C14.2937577,3.03105233 14.7679151,3.52977661 14.7679151,4.13450043 C14.7679151,4.73922426 14.2937577,5.23794853 13.6892996,5.26900086 L13.6892996,5.26999998 Z M13.6892996,3.71936619 C13.5359925,3.71184953 13.3909989,3.78928864 13.3120907,3.9208283 C13.2331826,4.05236797 13.2331826,4.21663289 13.3120907,4.34817256 C13.3909989,4.47971222 13.5359925,4.55715133 13.6892996,4.54963467 C13.9108573,4.53877168 14.0849096,4.3561295 14.0849096,4.13450043 C14.0849096,3.91287136 13.9108573,3.73022918 13.6892996,3.71936619 L13.6892996,3.71936619 Z" id="Shape"></path>
                <path d="M8.88931689,9.87197559 C8.27987062,9.84642245 7.79895751,9.34537912 7.79895751,8.73597559 C7.79895751,8.12657205 8.27987062,7.62552872 8.88931689,7.59997559 C9.49434955,7.63105527 9.96895759,8.13021896 9.96895759,8.73547559 C9.96895759,9.34073221 9.49434955,9.8398959 8.88931689,9.87097559 L8.88931689,9.87197559 Z M8.88931689,8.31997559 C8.73586404,8.3124523 8.59073262,8.38995964 8.51174951,8.5216152 C8.43276639,8.65327076 8.43276639,8.81768041 8.51174951,8.94933597 C8.59073262,9.08099153 8.73586404,9.15849887 8.88931689,9.15097559 C9.1110852,9.14010302 9.28530296,8.95729993 9.28530296,8.73547559 C9.28530296,8.51365124 9.1110852,8.33084815 8.88931689,8.31997559 L8.88931689,8.31997559 Z" id="Shape"></path>
                <path d="M4.08932401,9.87197559 C3.48045645,9.84642245 3,9.34537912 3,8.73597559 C3,8.12657205 3.48045645,7.62552872 4.08932401,7.59997559 C4.69378215,7.63105527 5.16793951,8.13021896 5.16793951,8.73547559 C5.16793951,9.34073221 4.69378215,9.8398959 4.08932401,9.87097559 L4.08932401,9.87197559 Z M4.08932401,8.31997559 C3.93601687,8.3124523 3.79102327,8.38995964 3.71211515,8.5216152 C3.63320703,8.65327076 3.63320703,8.81768041 3.71211515,8.94933597 C3.79102327,9.08099153 3.93601687,9.15849887 4.08932401,9.15097559 C4.31088174,9.14010302 4.48493406,8.95729993 4.48493406,8.73547559 C4.48493406,8.51365124 4.31088174,8.33084815 4.08932401,8.31997559 L4.08932401,8.31997559 Z" id="Shape"></path>
                <path d="M13.6892996,9.86997557 C13.080432,9.84444492 12.5999756,9.34384266 12.5999756,8.73497558 C12.5999756,8.12610849 13.080432,7.62550623 13.6892996,7.59997559 C14.2937577,7.63102792 14.7679151,8.12975219 14.7679151,8.73447602 C14.7679151,9.33919984 14.2937577,9.83792412 13.6892996,9.86897645 L13.6892996,9.86997557 Z M13.6892996,8.31934178 C13.5359925,8.31182512 13.3909989,8.38926423 13.3120907,8.52080389 C13.2331826,8.65234356 13.2331826,8.81660848 13.3120907,8.94814814 C13.3909989,9.07968781 13.5359925,9.15712692 13.6892996,9.14961026 C13.9108573,9.13874726 14.0849096,8.95610509 14.0849096,8.73447602 C14.0849096,8.51284694 13.9108573,8.33020477 13.6892996,8.31934178 L13.6892996,8.31934178 Z" id="Shape"></path>
                <path d="M8.88931689,14.3719756 C8.27987062,14.3464224 7.79895751,13.8453791 7.79895751,13.2359756 C7.79895751,12.6265721 8.27987062,12.1255287 8.88931689,12.0999756 C9.49434955,12.1310553 9.96895759,12.630219 9.96895759,13.2354756 C9.96895759,13.8407322 9.49434955,14.3398959 8.88931689,14.3709756 L8.88931689,14.3719756 Z M8.88931689,12.8199756 C8.73586404,12.8124523 8.59073262,12.8899596 8.51174951,13.0216152 C8.43276639,13.1532708 8.43276639,13.3176804 8.51174951,13.449336 C8.59073262,13.5809915 8.73586404,13.6584989 8.88931689,13.6509756 C9.1110852,13.640103 9.28530296,13.4572999 9.28530296,13.2354756 C9.28530296,13.0136512 9.1110852,12.8308482 8.88931689,12.8199756 L8.88931689,12.8199756 Z" id="Shape"></path>
                <path d="M4.08932401,14.3719756 C3.48045645,14.3464224 3,13.8453791 3,13.2359756 C3,12.6265721 3.48045645,12.1255287 4.08932401,12.0999756 C4.69378215,12.1310553 5.16793951,12.630219 5.16793951,13.2354756 C5.16793951,13.8407322 4.69378215,14.3398959 4.08932401,14.3709756 L4.08932401,14.3719756 Z M4.08932401,12.8199756 C3.93601687,12.8124523 3.79102327,12.8899596 3.71211515,13.0216152 C3.63320703,13.1532708 3.63320703,13.3176804 3.71211515,13.449336 C3.79102327,13.5809915 3.93601687,13.6584989 4.08932401,13.6509756 C4.31088174,13.640103 4.48493406,13.4572999 4.48493406,13.2354756 C4.48493406,13.0136512 4.31088174,12.8308482 4.08932401,12.8199756 L4.08932401,12.8199756 Z" id="Shape"></path>
                <path d="M13.6892996,14.3699756 C13.080432,14.3444449 12.5999756,13.8438427 12.5999756,13.2349756 C12.5999756,12.6261085 13.080432,12.1255062 13.6892996,12.0999756 C14.2937577,12.1310279 14.7679151,12.6297522 14.7679151,13.234476 C14.7679151,13.8391998 14.2937577,14.3379241 13.6892996,14.3689764 L13.6892996,14.3699756 Z M13.6892996,12.8193418 C13.5359925,12.8118251 13.3909989,12.8892642 13.3120907,13.0208039 C13.2331826,13.1523436 13.2331826,13.3166085 13.3120907,13.4481481 C13.3909989,13.5796878 13.5359925,13.6571269 13.6892996,13.6496103 C13.9108573,13.6387473 14.0849096,13.4561051 14.0849096,13.234476 C14.0849096,13.0128469 13.9108573,12.8302048 13.6892996,12.8193418 L13.6892996,12.8193418 Z" id="Shape"></path>
            </g>
        </g>
    </g>
</svg>