<svg version="1.1" xmlns="http://www.w3.org/2000/svg" xmlns:xlink="http://www.w3.org/1999/xlink" width="6" height="4" viewBox="0 0 6 4"><path id="Shape-54" d="M0.981,0.193 C0.981,0.193 2.996,2.448 2.996,2.448 C2.996,2.448 5.012,0.193 5.012,0.193 C5.235,-0.056 5.596,-0.056 5.818,0.193 C6.041,0.442 6.041,0.846 5.818,1.095 C5.818,1.095 3.399,3.801 3.399,3.801 C3.292,3.920 3.148,3.988 2.996,3.988 C2.996,3.988 2.996,3.988 2.996,3.988 C2.845,3.988 2.700,3.920 2.593,3.801 C2.593,3.801 0.174,1.095 0.174,1.095 C-0.048,0.846 -0.048,0.442 0.174,0.193 C0.286,0.069 0.431,0.007 0.578,0.007 C0.724,0.007 0.869,0.069 0.981,0.193 z" fill="#FF0000" /></svg>