<svg version="1.1" xmlns="http://www.w3.org/2000/svg" xmlns:xlink="http://www.w3.org/1999/xlink" width="6" height="4" viewBox="0 0 6 4"><path id="Shape-54" d="M5.422,3.993 C5.276,3.993 5.131,3.931 5.019,3.807 C5.019,3.807 3.004,1.552 3.004,1.552 C3.004,1.552 0.988,3.807 0.988,3.807 C0.765,4.056 0.404,4.056 0.182,3.807 C-0.041,3.558 -0.041,3.154 0.182,2.905 C0.182,2.905 2.601,0.199 2.601,0.199 C2.708,0.080 2.852,0.012 3.004,0.012 C3.004,0.012 3.004,0.012 3.004,0.012 C3.155,0.012 3.300,0.080 3.407,0.199 C3.407,0.199 5.826,2.905 5.826,2.905 C6.048,3.154 6.048,3.558 5.826,3.807 C5.714,3.931 5.569,3.993 5.422,3.993 z" fill="#39ca74" /></svg>