<svg id="SvgjsSvg1028" xmlns="http://www.w3.org/2000/svg" version="1.1" xmlns:xlink="http://www.w3.org/1999/xlink" xmlns:svgjs="http://svgjs.com/svgjs" width="17" height="16"><defs id="SvgjsDefs1029"></defs><path id="SvgjsPath1030" d="M791.85 382.93C789.96 382.93 788.1800000000001 382.19 786.84 380.85C784.08 378.1 784.08 373.61 786.84 370.85C788.1800000000001 369.51000000000005 789.96 368.77000000000004 791.85 368.77000000000004C793.74 368.77000000000004 795.51 369.51000000000005 796.85 370.85C799.61 373.61 799.61 378.1 796.85 380.85C795.51 382.19 793.74 382.93 791.85 382.93ZM791.85 368C789.75 368 787.78 368.82 786.3000000000001 370.3C783.23 373.36 783.23 378.34000000000003 786.3000000000001 381.40000000000003C787.7800000000001 382.88000000000005 789.7500000000001 383.70000000000005 791.85 383.70000000000005C793.94 383.70000000000005 795.9200000000001 382.88000000000005 797.4 381.40000000000003C800.4599999999999 378.34000000000003 800.4599999999999 373.36 797.4 370.3C795.92 368.82 793.9399999999999 368 791.85 368Z " fill="#459dd9" fill-opacity="1" transform="matrix(1,0,0,1,-783,-368)"></path><path id="SvgjsPath1031" d="M796.44 375.52L792.3000000000001 375.52L792.3000000000001 371.39C792.3000000000001 371.16999999999996 792.1200000000001 371 791.9100000000001 371C791.7 371 791.5200000000001 371.17 791.5200000000001 371.39L791.5200000000001 375.52L787.3900000000001 375.52C787.1700000000001 375.52 787.0000000000001 375.7 787.0000000000001 375.90999999999997C787.0000000000001 376.11999999999995 787.1700000000001 376.29999999999995 787.3900000000001 376.29999999999995L791.5200000000001 376.29999999999995L791.5200000000001 380.42999999999995C791.5200000000001 380.65 791.7 380.81999999999994 791.9100000000001 380.81999999999994C792.1200000000001 380.81999999999994 792.3000000000001 380.6499999999999 792.3000000000001 380.42999999999995L792.3000000000001 376.29999999999995L796.44 376.29999999999995C796.6500000000001 376.29999999999995 796.82 376.11999999999995 796.82 375.90999999999997C796.82 375.7 796.6500000000001 375.52 796.44 375.52 " fill="#459dd9" fill-opacity="1" transform="matrix(1,0,0,1,-783,-368)"></path></svg>