<svg id="SvgjsSvg1008" xmlns="http://www.w3.org/2000/svg" version="1.1" xmlns:xlink="http://www.w3.org/1999/xlink" xmlns:svgjs="http://svgjs.com/svgjs" width="24" height="28"><defs id="SvgjsDefs1009"></defs><path id="SvgjsPath1010" d="M519.24 463.65L501.28000000000003 463.65C500.58000000000004 463.65 500.00000000000006 463.07 500.00000000000006 462.34999999999997L500.00000000000006 440.29999999999995C500.00000000000006 439.5799999999999 500.58000000000004 438.99999999999994 501.28000000000003 438.99999999999994L519.24 438.99999999999994C519.95 438.99999999999994 520.52 439.5799999999999 520.52 440.29999999999995L520.52 462.34999999999997C520.52 463.07 519.9499999999999 463.65 519.24 463.65 " fill="#fefefe" fill-opacity="1" transform="matrix(1,0,0,1,-499,-438)"></path><path id="SvgjsPath1011" d="M500.8 439.06C500.38 439.06 500.04 439.4 500.04 439.82L500.04 461.88C500.04 462.31 500.38 462.65 500.8 462.65L518.76 462.65C519.18 462.65 519.52 462.31 519.52 461.88L519.52 439.82C519.52 439.4 519.18 439.06 518.76 439.06ZM500.8 463.71C499.81 463.71 499 462.89 499 461.88L499 439.82C499 438.82 499.81 438 500.8 438L518.76 438C519.76 438 520.5699999999999 438.82 520.5699999999999 439.82L520.5699999999999 461.88C520.5699999999999 462.89 519.76 463.71 518.76 463.71Z " fill="#70c3ed" fill-opacity="1" transform="matrix(1,0,0,1,-499,-438)"></path><path id="SvgjsPath1012" d="M509 445.06L503.52 445.06C503.22999999999996 445.06 503 444.82 503 444.53000000000003C503 444.24 503.23 444.00000000000006 503.52 444.00000000000006L509 444.00000000000006C509.29 444.00000000000006 509.52 444.24000000000007 509.52 444.53000000000003C509.52 444.82000000000005 509.28999999999996 445.06 509 445.06 " fill="#70c3ed" fill-opacity="1" transform="matrix(1,0,0,1,-499,-438)"></path><path id="SvgjsPath1013" d="M506.74 456.06L503.52 456.06C503.22999999999996 456.06 503 455.82 503 455.53000000000003C503 455.24 503.23 455.00000000000006 503.52 455.00000000000006L506.74 455.00000000000006C507.03000000000003 455.00000000000006 507.26 455.24000000000007 507.26 455.53000000000003C507.26 455.82000000000005 507.03 456.06 506.74 456.06 " fill="#e65325" fill-opacity="1" transform="matrix(1,0,0,1,-499,-438)"></path><path id="SvgjsPath1014" d="M516 448.06L503.52 448.06C503.22999999999996 448.06 503 447.82 503 447.53000000000003C503 447.24 503.23 447.00000000000006 503.52 447.00000000000006L516 447.00000000000006C516.29 447.00000000000006 516.52 447.24000000000007 516.52 447.53000000000003C516.52 447.82000000000005 516.29 448.06 516 448.06 " fill="#70c3ed" fill-opacity="1" transform="matrix(1,0,0,1,-499,-438)"></path><path id="SvgjsPath1015" d="M516 451.06L503.52 451.06C503.22999999999996 451.06 503 450.82 503 450.53000000000003C503 450.24 503.23 450.00000000000006 503.52 450.00000000000006L516 450.00000000000006C516.29 450.00000000000006 516.52 450.24000000000007 516.52 450.53000000000003C516.52 450.82000000000005 516.29 451.06 516 451.06 " fill="#70c3ed" fill-opacity="1" transform="matrix(1,0,0,1,-499,-438)"></path><path id="SvgjsPath1016" d="M518.05 455.7L518.05 455.7C518.26 456.28999999999996 518.92 456.57 519.4799999999999 456.3C520.3599999999999 455.87 521.2799999999999 456.81 520.8599999999999 457.7C520.5999999999999 458.26 520.8699999999999 458.94 521.4499999999999 459.14C522.3799999999999 459.47999999999996 522.3799999999999 460.8 521.4499999999999 461.13C520.8699999999999 461.34 520.5999999999999 462.01 520.8599999999999 462.57C521.2799999999999 463.46999999999997 520.3599999999999 464.4 519.4799999999999 463.98C518.92 463.71000000000004 518.2599999999999 463.99 518.05 464.57C517.7199999999999 465.51 516.42 465.51 516.0899999999999 464.57C515.8899999999999 463.99 515.2199999999999 463.71 514.67 463.98C513.78 464.40000000000003 512.86 463.47 513.28 462.57C513.55 462.01 513.27 461.34 512.6899999999999 461.13L512.6899999999999 461.13C511.7699999999999 460.8 511.7699999999999 459.48 512.6899999999999 459.14L512.6899999999999 459.14C513.27 458.94 513.55 458.26 513.28 457.7C512.86 456.81 513.78 455.87 514.67 456.3C515.2199999999999 456.57 515.89 456.29 516.0899999999999 455.7C516.42 454.77 517.7199999999999 454.77 518.05 455.7 " fill="#fefefe" fill-opacity="1" transform="matrix(1,0,0,1,-499,-438)"></path><path id="SvgjsPath1017" d="M516.11 463.92C516.22 464.25 516.51 464.27000000000004 516.59 464.27000000000004C516.6800000000001 464.27000000000004 516.97 464.25000000000006 517.08 463.92C517.3000000000001 463.3 517.89 462.87 518.5500000000001 462.87C518.7900000000001 462.87 519.0100000000001 462.92 519.22 463.03000000000003C519.47 463.14000000000004 519.75 463.05 519.89 462.83000000000004C519.9499999999999 462.74000000000007 520.02 462.56000000000006 519.91 462.33000000000004C519.73 461.92 519.7099999999999 461.46000000000004 519.88 461.04C520.05 460.63 520.39 460.31 520.8 460.16C521.12 460.04 521.15 459.75 521.15 459.66C521.15 459.58000000000004 521.12 459.29 520.8 459.17C520.39 459.02000000000004 520.05 458.7 519.88 458.29C519.71 457.87 519.73 457.41 519.91 457C520.02 456.77 519.9499999999999 456.59 519.89 456.5C519.75 456.28 519.47 456.18 519.22 456.3C519.01 456.41 518.7900000000001 456.46000000000004 518.5500000000001 456.46000000000004C517.9000000000001 456.46000000000004 517.3000000000001 456.03000000000003 517.08 455.41C516.97 455.08000000000004 516.6800000000001 455.06 516.59 455.06C516.51 455.06 516.22 455.08 516.11 455.41C515.89 456.03000000000003 515.29 456.46000000000004 514.63 456.46000000000004C514.4 456.46000000000004 514.18 456.41 513.97 456.3C513.72 456.18 513.44 456.28000000000003 513.3000000000001 456.5C513.2400000000001 456.59 513.1700000000001 456.77 513.2800000000001 457C513.46 457.41 513.4800000000001 457.87 513.3100000000001 458.29C513.1400000000001 458.70000000000005 512.8000000000001 459.02000000000004 512.3900000000001 459.17C512.07 459.29 512.0400000000001 459.58000000000004 512.0400000000001 459.66C512.0400000000001 459.75 512.07 460.04 512.3900000000001 460.16C512.8000000000001 460.31 513.1400000000001 460.63000000000005 513.3100000000001 461.04C513.48 461.46000000000004 513.46 461.92 513.2800000000001 462.33000000000004C513.1700000000001 462.56000000000006 513.2400000000001 462.74000000000007 513.3000000000001 462.83000000000004C513.44 463.05000000000007 513.72 463.15000000000003 513.97 463.03000000000003C514.1800000000001 462.92 514.4 462.87 514.63 462.87C515.29 462.87 515.89 463.3 516.11 463.92ZM515.12 464.28C515.02 464 514.69 463.84999999999997 514.41 463.97999999999996C513.7099999999999 464.31999999999994 512.8299999999999 464.04999999999995 512.42 463.39C512.13 462.93 512.0999999999999 462.37 512.3299999999999 461.87C512.4 461.74 512.4 461.59000000000003 512.3399999999999 461.45C512.29 461.31 512.18 461.2 512.04 461.15C511.40999999999997 460.92999999999995 510.99999999999994 460.34 510.99999999999994 459.65999999999997C510.99999999999994 458.98999999999995 511.40999999999997 458.4 512.04 458.17999999999995C512.18 458.11999999999995 512.29 458.0199999999999 512.3399999999999 457.87999999999994C512.3999999999999 457.73999999999995 512.3999999999999 457.5899999999999 512.3299999999999 457.4599999999999C512.0999999999999 456.94999999999993 512.1299999999999 456.3999999999999 512.42 455.93999999999994C512.8299999999999 455.2799999999999 513.6999999999999 455.00999999999993 514.41 455.34999999999997C514.48 455.37999999999994 514.56 455.4 514.63 455.4C514.85 455.4 515.05 455.26 515.12 455.04999999999995C515.35 454.40999999999997 515.93 453.99999999999994 516.59 453.99999999999994C517.26 453.99999999999994 517.84 454.40999999999997 518.07 455.04999999999995C518.1700000000001 455.3299999999999 518.5 455.47999999999996 518.7800000000001 455.34999999999997C519.4900000000001 455.01 520.3600000000001 455.28 520.7700000000001 455.93999999999994C521.0600000000001 456.3999999999999 521.0900000000001 456.94999999999993 520.8600000000001 457.4599999999999C520.7900000000001 457.5899999999999 520.7900000000001 457.7399999999999 520.8500000000001 457.87999999999994C520.9000000000001 458.0199999999999 521.0100000000001 458.11999999999995 521.1500000000001 458.17999999999995C521.7800000000001 458.4 522.19 458.98999999999995 522.19 459.65999999999997C522.19 460.34 521.7800000000001 460.92999999999995 521.1500000000001 461.15C521.0100000000001 461.2 520.9000000000001 461.31 520.8500000000001 461.45C520.7900000000002 461.59 520.7900000000002 461.74 520.8600000000001 461.87C521.0900000000001 462.37 521.0600000000002 462.93 520.7700000000001 463.39C520.3600000000001 464.05 519.4900000000001 464.32 518.7800000000001 463.97999999999996C518.5000000000001 463.84999999999997 518.1700000000001 463.99999999999994 518.07 464.28C517.84 464.91999999999996 517.2600000000001 465.33 516.59 465.33C515.9300000000001 465.33 515.35 464.91999999999996 515.12 464.28Z " fill="#3374a0" fill-opacity="1" transform="matrix(1,0,0,1,-499,-438)"></path><path id="SvgjsPath1018" d="M516.86 461.86C516.72 461.86 516.58 461.8 516.48 461.7L515.15 460.3C514.9499999999999 460.09000000000003 514.9499999999999 459.75 515.16 459.55C515.37 459.35 515.6999999999999 459.35 515.9 459.56L516.8199999999999 460.53000000000003L518.68 458.20000000000005C518.8599999999999 457.97 519.18 457.93000000000006 519.41 458.12000000000006C519.63 458.30000000000007 519.67 458.63000000000005 519.49 458.86000000000007L517.27 461.6600000000001C517.17 461.7800000000001 517.03 461.8500000000001 516.88 461.86000000000007C516.87 461.86000000000007 516.87 461.86000000000007 516.86 461.86000000000007 " fill="#64bb45" fill-opacity="1" transform="matrix(1,0,0,1,-499,-438)"></path></svg>