<svg id="SvgjsSvg1022" xmlns="http://www.w3.org/2000/svg" version="1.1" xmlns:xlink="http://www.w3.org/1999/xlink" xmlns:svgjs="http://svgjs.com/svgjs" width="20" height="25"><defs id="SvgjsDefs1023"></defs><path id="SvgjsPath1024" d="M378.78 362C378.34999999999997 362 378 362.36 378 362.81L378 386.19C378 386.64 378.35 387 378.78 387L397.21999999999997 387C397.65 387 397.99999999999994 386.64 397.99999999999994 386.19L397.99999999999994 362.81C397.99999999999994 362.36 397.6499999999999 362 397.21999999999997 362Z " fill-opacity="0" fill="#ffffff" stroke-dasharray="0" stroke-linejoin="miter" stroke-linecap="butt" stroke-opacity="1" stroke="#70c3ed" stroke-miterlimit="50" stroke-width="2" transform="matrix(1,0,0,1,-378,-362)"></path><path id="SvgjsPath1025" d="M387.44 369L381.56 369C381.25 369 381 368.78 381 368.5C381 368.22 381.25 368 381.56 368L387.44 368C387.75 368 388 368.22 388 368.5C388 368.78 387.75 369 387.44 369 " fill="#70c3ed" fill-opacity="1" transform="matrix(1,0,0,1,-378,-362)"></path><path id="SvgjsPath1026" d="M394.46 372L381.53999999999996 372C381.23999999999995 372 380.99999999999994 371.78 380.99999999999994 371.5C380.99999999999994 371.22 381.23999999999995 371 381.53999999999996 371L394.46 371C394.76 371 395 371.22 395 371.5C395 371.78 394.76 372 394.46 372 " fill="#70c3ed" fill-opacity="1" transform="matrix(1,0,0,1,-378,-362)"></path><path id="SvgjsPath1027" d="M394.46 375L381.53999999999996 375C381.23999999999995 375 380.99999999999994 374.78 380.99999999999994 374.5C380.99999999999994 374.22 381.23999999999995 374 381.53999999999996 374L394.46 374C394.76 374 395 374.22 395 374.5C395 374.78 394.76 375 394.46 375 " fill="#70c3ed" fill-opacity="1" transform="matrix(1,0,0,1,-378,-362)"></path></svg>