<?xml version="1.0" encoding="utf-8"?>
<!-- Generator: Avocode 0.4.0 - http://avocode.com -->
<svg height="28" width="180" xmlns:xlink="http://www.w3.org/1999/xlink" xmlns="http://www.w3.org/2000/svg" viewBox="0 0 180 28">
    <text font-size="16" font-family="Source Sans Pro" fill="#3a99d8" y="21" x="38">
        <tspan>Upload a certification</tspan>
    </text>
    <path fill="#fefefe" fill-rule="evenodd" d="M 19.76 25.18 L 1.8 25.18 C 1.1 25.18 0.52 24.59 0.52 23.88 L 0.52 1.82 C 0.52 1.11 1.1 0.53 1.8 0.53 L 19.76 0.53 C 20.47 0.53 21.04 1.11 21.04 1.82 L 21.04 23.88 C 21.04 24.59 20.47 25.18 19.76 25.18" />
    <path fill="#70c3ed" fill-rule="evenodd" d="M 1.8 1.06 C 1.38 1.06 1.04 1.4 1.04 1.82 L 1.04 23.88 C 1.04 24.31 1.38 24.65 1.8 24.65 L 19.76 24.65 C 20.18 24.65 20.52 24.31 20.52 23.88 L 20.52 1.82 C 20.52 1.4 20.18 1.06 19.76 1.06 L 1.8 1.06 Z M 19.76 25.71 L 1.8 25.71 C 0.81 25.71 0 24.89 0 23.88 L 0 1.82 C 0 0.82 0.81 0 1.8 0 L 19.76 0 C 20.76 0 21.57 0.82 21.57 1.82 L 21.57 23.88 C 21.57 24.89 20.76 25.71 19.76 25.71 L 19.76 25.71 Z M 19.76 25.71" />
    <path fill="#70c3ed" fill-rule="evenodd" d="M 10.28 7.43 L 4.81 7.43 C 4.52 7.43 4.28 7.2 4.28 6.9 C 4.28 6.61 4.52 6.38 4.81 6.38 L 10.28 6.38 C 10.57 6.38 10.81 6.61 10.81 6.9 C 10.81 7.2 10.57 7.43 10.28 7.43" />
    <path fill="#e65325" fill-rule="evenodd" d="M 8.02 18.08 L 4.81 18.08 C 4.52 18.08 4.28 17.84 4.28 17.55 C 4.28 17.26 4.52 17.02 4.81 17.02 L 8.02 17.02 C 8.31 17.02 8.54 17.26 8.54 17.55 C 8.54 17.84 8.31 18.08 8.02 18.08" />
    <path fill="#70c3ed" fill-rule="evenodd" d="M 17.28 10.45 L 4.81 10.45 C 4.52 10.45 4.28 10.21 4.28 9.92 C 4.28 9.63 4.52 9.39 4.81 9.39 L 17.28 9.39 C 17.57 9.39 17.81 9.63 17.81 9.92 C 17.81 10.21 17.57 10.45 17.28 10.45" />
    <path fill="#70c3ed" fill-rule="evenodd" d="M 17.28 13.46 L 4.81 13.46 C 4.52 13.46 4.28 13.23 4.28 12.94 C 4.28 12.64 4.52 12.41 4.81 12.41 L 17.28 12.41 C 17.57 12.41 17.81 12.64 17.81 12.94 C 17.81 13.23 17.57 13.46 17.28 13.46" />
    <path fill="#fefefe" fill-rule="evenodd" d="M 18.98 17.71 L 18.98 17.71 C 19.18 18.3 19.85 18.57 20.4 18.31 C 21.29 17.88 22.21 18.81 21.79 19.71 C 21.52 20.27 21.8 20.94 22.38 21.15 C 23.3 21.48 23.3 22.8 22.38 23.14 C 21.8 23.35 21.52 24.02 21.79 24.58 C 22.21 25.47 21.29 26.41 20.4 25.98 C 19.85 25.72 19.18 25.99 18.98 26.58 C 18.65 27.51 17.34 27.51 17.02 26.58 C 16.81 25.99 16.15 25.72 15.59 25.98 C 14.71 26.41 13.79 25.47 14.21 24.58 C 14.47 24.02 14.2 23.35 13.61 23.14 L 13.61 23.14 C 12.69 22.8 12.69 21.48 13.61 21.15 L 13.61 21.15 C 14.2 20.94 14.47 20.27 14.21 19.71 C 13.79 18.81 14.71 17.88 15.59 18.31 C 16.15 18.57 16.81 18.3 17.02 17.71 C 17.34 16.77 18.65 16.77 18.98 17.71" />
    <path fill="#3374a0" fill-rule="evenodd" d="M 16.04 25.35 C 16.7 25.35 17.29 25.78 17.51 26.4 C 17.62 26.73 17.91 26.75 18 26.75 C 18.08 26.75 18.37 26.73 18.48 26.4 C 18.71 25.78 19.3 25.35 19.96 25.35 C 20.19 25.35 20.41 25.4 20.63 25.51 C 20.87 25.62 21.15 25.53 21.29 25.31 C 21.35 25.22 21.42 25.04 21.32 24.81 C 21.13 24.4 21.12 23.94 21.28 23.52 C 21.45 23.11 21.79 22.79 22.2 22.64 C 22.52 22.52 22.55 22.23 22.55 22.14 C 22.55 22.06 22.52 21.77 22.2 21.65 C 21.79 21.5 21.45 21.18 21.28 20.77 C 21.12 20.35 21.13 19.89 21.32 19.48 C 21.42 19.25 21.35 19.07 21.29 18.98 C 21.15 18.76 20.87 18.66 20.63 18.78 C 20.42 18.89 20.19 18.94 19.96 18.94 C 19.3 18.94 18.71 18.51 18.48 17.88 C 18.37 17.56 18.08 17.54 18 17.54 C 17.91 17.54 17.62 17.56 17.51 17.88 C 17.29 18.51 16.7 18.94 16.04 18.94 C 15.8 18.94 15.58 18.89 15.37 18.78 C 15.12 18.66 14.84 18.76 14.7 18.98 C 14.65 19.07 14.57 19.25 14.68 19.48 C 14.87 19.89 14.88 20.35 14.71 20.77 C 14.54 21.18 14.21 21.5 13.79 21.65 C 13.47 21.77 13.45 22.06 13.45 22.14 C 13.45 22.23 13.47 22.52 13.79 22.64 C 14.21 22.79 14.54 23.11 14.71 23.52 C 14.88 23.94 14.87 24.4 14.68 24.81 C 14.57 25.04 14.65 25.22 14.7 25.31 C 14.84 25.53 15.12 25.63 15.37 25.51 C 15.58 25.4 15.8 25.35 16.04 25.35 M 18 27.81 C 17.33 27.81 16.75 27.4 16.53 26.76 C 16.43 26.48 16.09 26.33 15.82 26.46 C 15.11 26.8 14.23 26.53 13.82 25.87 C 13.53 25.41 13.5 24.85 13.73 24.35 C 13.8 24.22 13.8 24.07 13.74 23.93 C 13.69 23.79 13.58 23.68 13.44 23.63 C 12.81 23.41 12.4 22.82 12.4 22.14 C 12.4 21.47 12.81 20.88 13.44 20.65 C 13.58 20.6 13.69 20.5 13.74 20.36 C 13.8 20.22 13.8 20.07 13.73 19.94 C 13.5 19.43 13.53 18.88 13.82 18.42 C 14.23 17.76 15.11 17.49 15.82 17.83 C 15.89 17.86 15.96 17.88 16.04 17.88 C 16.26 17.88 16.45 17.74 16.53 17.53 C 16.75 16.89 17.33 16.48 18 16.48 C 18.67 16.48 19.24 16.89 19.47 17.53 C 19.57 17.81 19.91 17.96 20.18 17.83 C 20.89 17.49 21.76 17.76 22.17 18.42 C 22.46 18.88 22.49 19.43 22.26 19.94 C 22.2 20.07 22.19 20.22 22.25 20.36 C 22.31 20.5 22.41 20.6 22.55 20.65 C 23.18 20.88 23.59 21.47 23.59 22.14 C 23.59 22.82 23.18 23.41 22.55 23.63 C 22.41 23.68 22.31 23.79 22.25 23.93 C 22.19 24.07 22.2 24.22 22.26 24.35 C 22.49 24.85 22.46 25.41 22.17 25.87 C 21.76 26.53 20.89 26.8 20.18 26.46 C 19.91 26.33 19.57 26.48 19.47 26.76 C 19.24 27.4 18.67 27.81 18 27.81" />
    <path fill="#64bb45" fill-rule="evenodd" d="M 17.72 24.07 C 17.58 24.07 17.45 24.02 17.35 23.91 L 16.01 22.51 C 15.81 22.3 15.82 21.97 16.02 21.76 C 16.23 21.56 16.56 21.57 16.76 21.78 L 17.69 22.75 L 19.54 20.41 C 19.72 20.18 20.05 20.15 20.27 20.33 C 20.5 20.51 20.53 20.85 20.35 21.07 L 18.13 23.88 C 18.04 24 17.9 24.07 17.75 24.07 C 17.74 24.07 17.73 24.07 17.72 24.07" />
</svg>