<svg version="1.1" xmlns="http://www.w3.org/2000/svg" xmlns:xlink="http://www.w3.org/1999/xlink" width="25" height="25" viewBox="0 0 25 25"><path id="Add-Icon-copy-3" d="M12.354,25.005 C5.541,25.005 -0.002,19.396 -0.002,12.502 C-0.002,5.608 5.541,-0.001 12.354,-0.001 C19.168,-0.001 24.710,5.608 24.710,12.502 C24.710,19.396 19.167,25.005 12.354,25.005 zM12.354,0.847 C6.004,0.847 0.836,6.076 0.836,12.502 C0.836,18.929 6.004,24.157 12.354,24.157 C18.705,24.157 23.872,18.929 23.872,12.502 C23.872,6.076 18.705,0.847 12.354,0.847 zM12.708,14.915 C12.648,14.972 12.578,15.000 12.500,15.000 C12.422,15.000 12.353,14.972 12.293,14.915 C12.293,14.915 8.090,10.912 8.090,10.912 C8.030,10.854 8.000,10.788 8.000,10.714 C8.000,10.639 8.030,10.573 8.090,10.516 C8.090,10.516 8.541,10.086 8.541,10.086 C8.601,10.029 8.670,10.000 8.749,10.000 C8.827,10.000 8.896,10.029 8.956,10.086 C8.956,10.086 12.500,13.463 12.500,13.463 C12.500,13.463 16.044,10.086 16.044,10.086 C16.105,10.029 16.174,10.000 16.252,10.000 C16.330,10.000 16.399,10.029 16.459,10.086 C16.459,10.086 16.910,10.516 16.910,10.516 C16.970,10.573 17.000,10.639 17.000,10.714 C17.000,10.788 16.970,10.854 16.910,10.912 C16.910,10.912 12.708,14.915 12.708,14.915 z" fill="#FFFFFF" /></svg>