<?xml version="1.0" encoding="UTF-8"?>
<svg width="24px" height="24px" viewBox="0 0 24 24" version="1.1" xmlns="http://www.w3.org/2000/svg" xmlns:xlink="http://www.w3.org/1999/xlink">
  <path fill="#000" fill-opacity=".2" fill-rule="evenodd" d="M12,12.52 C10.01,12.52 8.41,10.23 8.41,8.34 C8.41,6.5 10.02,5 12,5 C13.98,5 15.59,6.5 15.59,8.34 C15.59,10.23 13.99,12.52 12,12.52 M12,20 C6.26,20 6,17.99 6,17.99 C6,16.06 6.9,14.29 8.43,13.15 C9.3,14 10.6,14.49 12,14.49 C13.4,14.49 14.7,14 15.57,13.15 C17.1,14.29 18,16.06 18,17.96 C18,17.98 17.75,20 12,20"></path>
</svg>