<?xml version="1.0" encoding="UTF-8"?>
<svg width="24px" height="24px" viewBox="0 0 24 24" version="1.1" xmlns="http://www.w3.org/2000/svg" xmlns:xlink="http://www.w3.org/1999/xlink">
    <!-- Generator: Sketch 41 (35326) - http://www.bohemiancoding.com/sketch -->
    <title>GC-2</title>
    <desc>Created with Sketch.</desc>
    <defs></defs>
    <g id="Symbols" stroke="none" stroke-width="1" fill="none" fill-rule="evenodd">
        <g id="GC-2">
            <g id="Icon" transform="translate(1.000000, 3.000000)">
                <path d="M12.6578,3.8667 C12.8958,4.0987 13.2508,4.2327 13.6338,4.2327 C14.0158,4.2327 14.3708,4.0987 14.6088,3.8667 C15.0268,4.1787 15.2728,4.6617 15.2728,5.1807 C15.2728,5.1867 15.2048,5.7387 13.6338,5.7387 C12.0648,5.7387 11.9938,5.1897 11.9938,5.1897 C11.9938,4.6617 12.2398,4.1787 12.6578,3.8667 M13.6338,1.6397 C14.1748,1.6397 14.6138,2.0497 14.6138,2.5527 C14.6138,3.0687 14.1768,3.6947 13.6338,3.6947 C13.0898,3.6947 12.6518,3.0687 12.6518,2.5527 C12.6518,2.0497 13.0918,1.6397 13.6338,1.6397 M12.9408,6.9067 C13.9448,6.2247 15.1558,5.8247 16.4578,5.8247 C16.5148,5.8247 16.5688,5.8317 16.6248,5.8327 C17.0598,5.2277 17.3228,4.4907 17.3228,3.6887 C17.3228,1.6517 15.6708,-0.0003 13.6338,-0.0003 C11.5958,-0.0003 9.9438,1.6517 9.9438,3.6887 C9.9438,3.8517 9.9718,4.0077 9.9918,4.1647 C11.2108,4.7897 12.2308,5.7417 12.9408,6.9067 Z M16.4583,6.563 C16.2643,6.563 16.0733,6.573 15.8843,6.593 C15.0493,6.679 14.2723,6.957 13.5883,7.374 C13.4893,7.434 13.3913,7.495 13.2963,7.561 C13.7563,8.524 14.0223,9.596 14.0223,10.733 C14.0223,12.598 13.3213,14.299 12.1753,15.6 C13.1913,16.84 14.7333,17.633 16.4583,17.633 C19.5103,17.633 21.9933,15.15 21.9933,12.098 C21.9933,9.046 19.5103,6.563 16.4583,6.563 Z M12.7092,8.0377 C12.6572,7.9187 12.6002,7.8027 12.5412,7.6887 C12.4842,7.5767 12.4212,7.4687 12.3582,7.3617 C12.3032,7.2677 12.2492,7.1737 12.1892,7.0837 C11.6842,6.3177 11.0252,5.6637 10.2552,5.1637 C9.2152,4.4877 7.9752,4.0907 6.6422,4.0907 C2.9742,4.0907 0.0002,7.0647 0.0002,10.7327 C0.0002,14.4007 2.9742,17.3747 6.6422,17.3747 C8.4182,17.3747 10.0272,16.6737 11.2192,15.5387 C11.3102,15.4517 11.3982,15.3617 11.4842,15.2697 C11.5722,15.1757 11.6612,15.0827 11.7442,14.9837 C12.7052,13.8317 13.2842,12.3507 13.2842,10.7327 C13.2842,9.7717 13.0762,8.8617 12.7092,8.0377 Z" id="Combined-Shape" fill="#F17822"></path>
                <path d="M13.6333,5.7386 C15.2043,5.7386 15.2733,5.1866 15.2733,5.1816 C15.2733,4.6616 15.0273,4.1786 14.6093,3.8666 C14.3713,4.0986 14.0163,4.2326 13.6333,4.2326 C13.2503,4.2326 12.8953,4.0986 12.6573,3.8666 C12.2393,4.1786 11.9933,4.6616 11.9933,5.1896 C11.9933,5.1896 12.0643,5.7386 13.6333,5.7386 Z M13.6333,3.6946 C14.1773,3.6946 14.6143,3.0686 14.6143,2.5526 C14.6143,2.0496 14.1743,1.6396 13.6333,1.6396 C13.0923,1.6396 12.6523,2.0496 12.6523,2.5526 C12.6523,3.0686 13.0893,3.6946 13.6333,3.6946 Z M16.4583,12.1067 C17.3283,12.1067 18.0283,11.1047 18.0283,10.2787 C18.0283,9.4737 17.3243,8.8177 16.4583,8.8177 C15.5923,8.8177 14.8883,9.4737 14.8883,10.2787 C14.8883,11.1047 15.5883,12.1067 16.4583,12.1067 Z M18.0196,12.3822 C17.6396,12.7542 17.0706,12.9682 16.4586,12.9682 C15.8456,12.9682 15.2776,12.7542 14.8966,12.3822 C14.2276,12.8812 13.8346,13.6552 13.8346,14.4992 C13.8346,14.4992 13.9476,15.3782 16.4586,15.3782 C18.9726,15.3782 19.0826,14.4942 19.0826,14.4862 C19.0826,13.6552 18.6886,12.8812 18.0196,12.3822 Z" id="Combined-Shape" fill="#FD9E02"></path>
                <path d="M6.6422,10.7425 C7.6212,10.7425 8.4082,9.6155 8.4082,8.6855 C8.4082,7.7805 7.6162,7.0425 6.6422,7.0425 C5.6682,7.0425 4.8762,7.7805 4.8762,8.6855 C4.8762,9.6155 5.6632,10.7425 6.6422,10.7425 Z M8.3986,11.0524 C7.9706,11.4704 7.3306,11.7114 6.6426,11.7114 C5.9536,11.7114 5.3136,11.4704 4.8856,11.0524 C4.1326,11.6134 3.6896,12.4844 3.6896,13.4334 C3.6896,13.4334 3.8176,14.4224 6.6426,14.4224 C9.4716,14.4224 9.5946,13.4284 9.5946,13.4194 C9.5946,12.4844 9.1516,11.6134 8.3986,11.0524 Z" id="Combined-Shape" fill="#CD6813"></path>
            </g>
        </g>
    </g>
</svg>