<svg xmlns="http://www.w3.org/2000/svg" width="20" height="14" viewBox="0 0 20 14"><path d="m15.2 14c-0.2 0-0.4-0.1-0.4-0.3 0-2.8-2.1-5.09-4.7-5.09-2.62 0-4.73 2.29-4.73 5.09 0 0.2-0.17 0.3-0.37 0.3-0.21 0-0.37-0.1-0.37-0.3 0-3.2 2.44-5.83 5.47-5.83 3 0 5.4 2.63 5.4 5.83 0 0.2-0.1 0.3-0.3 0.3"/><path d="m10.3 7.11c-1.88 0-3.39-1.51-3.39-3.36s1.51-3.35 3.39-3.35c1.8-0.001 3.3 1.5 3.3 3.35s-1.5 3.36-3.3 3.36zm0-5.97c-1.47 0-2.65 1.17-2.65 2.61 0 1.45 1.18 2.62 2.65 2.62 1.4 0 2.6-1.17 2.6-2.62 0-1.44-1.2-2.61-2.6-2.61z"/><path d="m5.85 9.16c-0.2 0-0.37-0.16-0.37-0.37 0-1.35-1.02-2.45-2.28-2.45-1.25 0-2.28 1.1-2.28 2.45 0.003 0.21-0.163 0.37-0.367 0.37-0.206 0-0.371-0.16-0.371-0.37 0-1.76 1.36-3.19 3.02-3.19 1.67 0 3.02 1.43 3.02 3.19 0 0.21-0.16 0.37-0.37 0.37"/><path d="m3.3 5.56c-1.06 0-1.93-0.87-1.93-1.93s0.87-1.93 1.93-1.93 1.93 0.87 1.93 1.93-0.87 1.93-1.93 1.93zm0-3.12c-0.65 0-1.18 0.54-1.18 1.19s0.53 1.19 1.18 1.19c0.66 0 1.19-0.54 1.19-1.19s-0.53-1.19-1.19-1.19z"/><path d="m19.6 9.16c-0.2 0-0.3-0.16-0.3-0.37 0-1.35-1.1-2.45-2.3-2.45-1.3 0-2.3 1.1-2.3 2.45 0 0.21-0.2 0.37-0.4 0.37s-0.3-0.16-0.3-0.37c0-1.76 1.3-3.19 3-3.19 1.6 0 3 1.43 3 3.19 0 0.21-0.2 0.37-0.4 0.37"/><path d="m17.1 5.56c-1.1 0-2-0.87-2-1.93s0.9-1.93 2-1.93c1 0 1.9 0.87 1.9 1.93s-0.9 1.93-1.9 1.93zm0-3.12c-0.7 0-1.2 0.54-1.2 1.19s0.5 1.19 1.2 1.19c0.6 0 1.2-0.54 1.2-1.19s-0.6-1.19-1.2-1.19z"/></svg>