<svg width="25" height="26" viewBox="0 0 25 26" xmlns="http://www.w3.org/2000/svg" xmlns:xlink="http://www.w3.org/1999/xlink"><title>ic_shevron</title><defs><circle id="a" cx="12.5" cy="12.5" r="12.5"/><mask id="b" x="0" y="0" width="25" height="25" fill="#fff"><use xlink:href="#a"/></mask></defs><g transform="translate(0 .143)" fill="none" fill-rule="evenodd"><path d="M12 9.857c.552 0 1-.448 1-1s-.448-1-1-1-1 .448-1 1 .448 1 1 1zm0 4c.552 0 1-.448 1-1s-.448-1-1-1-1 .448-1 1 .448 1 1 1zm0 4c.552 0 1-.448 1-1s-.448-1-1-1-1 .448-1 1 .448 1 1 1z" fill="#B4B5B7"/></g></svg>