<svg version="1.1" xmlns="http://www.w3.org/2000/svg" xmlns:xlink="http://www.w3.org/1999/xlink" width="17" height="9" viewBox="0 0 17 9"><path id="Shape-50-copy" d="M0.938,6.313 L0.921,2.691 L2.095,2.690 L2.111,6.311 L0.938,6.313 zM2.852,8.170 L2.820,0.831 L5.032,0.828 L5.064,8.168 L2.852,8.170 zM5.782,5.190 L5.776,3.803 L11.207,3.797 L11.213,5.185 L5.782,5.190 zM11.959,8.159 L11.927,0.821 L14.137,0.819 L14.169,8.158 L11.959,8.159 zM14.878,2.675 L16.053,2.675 L16.068,6.296 L14.894,6.297 L14.878,2.675 zM14.898,7.448 L14.898,7.013 C14.898,7.013 16.436,7.012 16.436,7.012 C16.534,7.012 16.627,6.974 16.697,6.907 C16.765,6.840 16.802,6.750 16.802,6.655 C16.802,6.655 16.785,2.318 16.785,2.318 C16.783,2.123 16.619,1.962 16.418,1.962 C16.418,1.962 16.417,1.962 16.417,1.962 L14.875,1.962 C14.875,1.962 14.868,0.462 14.868,0.462 C14.868,0.265 14.704,0.105 14.501,0.105 C14.501,0.105 14.501,0.105 14.501,0.105 C14.501,0.105 11.558,0.107 11.558,0.107 C11.460,0.107 11.367,0.145 11.299,0.212 C11.230,0.279 11.192,0.370 11.192,0.465 C11.192,0.465 11.204,3.083 11.204,3.083 L10.063,3.084 L9.331,3.084 L5.774,3.089 C5.774,3.089 5.762,0.471 5.762,0.471 C5.761,0.275 5.596,0.114 5.395,0.114 C5.395,0.114 5.395,0.114 5.395,0.114 C5.395,0.114 2.451,0.116 2.451,0.116 C2.354,0.116 2.259,0.154 2.192,0.221 C2.122,0.288 2.085,0.379 2.085,0.473 C2.085,0.473 2.091,1.976 2.091,1.976 C2.091,1.976 0.552,1.978 0.552,1.978 C0.350,1.978 0.186,2.138 0.187,2.335 C0.187,2.335 0.207,6.670 0.207,6.670 C0.207,6.764 0.246,6.856 0.313,6.923 C0.383,6.990 0.476,7.028 0.574,7.028 C0.574,7.028 0.574,7.028 0.574,7.028 L2.114,7.026 C2.114,7.026 2.121,8.529 2.121,8.529 C2.122,8.724 2.286,8.884 2.488,8.885 C2.488,8.885 2.489,8.885 2.489,8.885 C2.489,8.885 5.433,8.882 5.433,8.882 C5.529,8.882 5.622,8.845 5.692,8.779 C5.761,8.711 5.799,8.621 5.798,8.525 C5.798,8.525 5.788,5.906 5.788,5.906 L11.218,5.901 C11.218,5.901 11.230,8.520 11.230,8.520 C11.230,8.716 11.395,8.877 11.597,8.877 C11.597,8.877 11.597,8.877 11.597,8.877 C11.597,8.877 14.542,8.874 14.542,8.874 C14.637,8.874 14.730,8.835 14.800,8.769 C14.869,8.702 14.907,8.611 14.907,8.516 C14.907,8.516 14.905,8.165 14.905,8.165 L14.898,7.448 z" fill="#3A99D8" /></svg>