<svg xmlns="http://www.w3.org/2000/svg" width="17" height="9" viewBox="0 0 17 9"><path fill="#000" d="M2.11 6.31L2.1 2.7H.92l.02 3.62zm2.95 1.86L5.03.83H2.82l.03 7.34zm6.15-2.98v-1.4l-5.43.01V5.2zm2.96 2.97L14.14.82h-2.21l.03 7.34zm.72-1.86h1.18l-.02-3.63h-1.17zm.01 1.87v.35c0 .1-.03.18-.1.25a.38.38 0 0 1-.26.1H11.6a.36.36 0 0 1-.37-.35l-.01-2.62H5.79v2.62c0 .1-.03.2-.1.26a.38.38 0 0 1-.26.1H2.5a.36.36 0 0 1-.37-.35v-1.5H.56c-.1 0-.19-.04-.26-.1a.36.36 0 0 1-.1-.26L.19 2.33c0-.2.16-.35.36-.35H2.1V.48c0-.1.03-.2.1-.26.07-.07.16-.1.26-.1H5.4c.2 0 .37.16.37.35l.01 2.62h5.43V.46c0-.1.03-.2.1-.26s.16-.1.26-.1h2.94c.2 0 .37.16.37.35v1.5h1.55c.2 0 .36.16.37.36l.01 4.34c0 .09-.04.18-.1.25a.37.37 0 0 1-.26.1H14.9v.44z"/></svg>
