<?xml version="1.0" encoding="UTF-8" standalone="no"?>
<svg width="66px" height="51px" viewBox="0 0 66 51" version="1.1" xmlns="http://www.w3.org/2000/svg" xmlns:xlink="http://www.w3.org/1999/xlink">
    <!-- Generator: sketchtool 39.1 (31720) - http://www.bohemiancoding.com/sketch -->
    <title>924056C3-4ECB-492F-B5B6-1D80EA56B380</title>
    <desc>Created with sketchtool.</desc>
    <defs>
        <polygon id="path-1" points="7.69950452e-20 0.357781888 7.69950452e-20 49.5454375 49.2765408 49.5454375 49.2765408 0.357781888 0 0.357781888"></polygon>
        <polygon id="path-3" points="0 50.7136467 65.6655683 50.7136467 65.6655683 0.960789541 0 0.960789541"></polygon>
    </defs>
    <g id="Page-1" stroke="none" stroke-width="1" fill="none" fill-rule="evenodd">
        <g id="Sign-up---5" transform="translate(-613.000000, -440.000000)">
            <g id="il_5" transform="translate(613.000000, 440.000000)">
                <g id="Group-3" transform="translate(0.000000, 0.603953)">
                    <mask id="mask-2" fill="white">
                        <use xlink:href="#path-1"></use>
                    </mask>
                    <g id="Clip-2"></g>
                    <path d="M24.6389332,2.24808801 C12.0966676,2.24808801 1.89317574,12.4330574 1.89317574,24.9525548 C1.89317574,37.470162 12.0966676,47.6551314 24.6389332,47.6551314 C37.1793051,47.6551314 47.382797,37.470162 47.382797,24.9525548 C47.382797,12.4330574 37.1793051,2.24808801 24.6389332,2.24808801 M24.6389332,49.5454375 C11.0532148,49.5454375 -0.000568123158,38.513611 -0.000568123158,24.9525548 C-0.000568123158,11.3914987 11.0532148,0.357781888 24.6389332,0.357781888 C38.2246517,0.357781888 49.2765408,11.3914987 49.2765408,24.9525548 C49.2765408,38.513611 38.2246517,49.5454375 24.6389332,49.5454375" id="Fill-1" fill="#3696D2" mask="url(#mask-2)"></path>
                </g>
                <g id="Group-6" transform="translate(36.914669, 24.249361)" fill="#3696D2">
                    <path d="M14.523391,0.710377041 C6.66624777,0.710377041 0.29379969,7.26217806 0.29379969,15.345127 L0.29379969,26.4639077 L3.29727745,26.4639077 L3.29727745,21.9441857 C3.29727745,21.4224612 3.72147607,20.9990327 4.24414938,20.9990327 C4.76871643,20.9990327 5.19102131,21.4224612 5.19102131,21.9441857 L5.19102131,26.4639077 L21.9979981,26.4639077 L21.9979981,16.6002903 C21.9979981,16.0785658 22.4221967,15.6551372 22.94487,15.6551372 C23.469437,15.6551372 23.8917419,16.0785658 23.8917419,16.6002903 L23.8917419,26.4639077 L28.7510887,26.4639077 L28.7510887,15.345127 C28.7510887,7.26217806 22.3824281,0.710377041 14.523391,0.710377041" id="Fill-4"></path>
                </g>
                <path d="M58.3204934,26.7336013 C58.0913504,29.0416651 55.1030225,30.8771523 51.4386282,30.8771523 C47.7723401,30.8771523 44.7840123,29.0416651 44.5548693,26.7336013 C46.5944314,25.6031982 48.94078,24.9604941 51.4386282,24.9604941 C53.9345826,24.9604941 56.2809312,25.6031982 58.3204934,26.7336013" id="Fill-7" fill="#2A8BBB"></path>
                <path d="M59.9566881,16.7510837 C59.9566881,21.8284459 56.1407942,25.9436423 51.4386282,25.9436423 C46.7345684,25.9436423 42.9205683,21.8284459 42.9205683,16.7510837 C42.9205683,11.6756117 46.7345684,7.56419592 51.4386282,7.56419592 C56.1407942,7.56419592 59.9566881,11.6756117 59.9566881,16.7510837" id="Fill-9" fill="#FEFEFE"></path>
                <path d="M51.4380601,8.5082148 C47.2642486,8.5082148 43.8668721,12.2056536 43.8668721,16.7499495 C43.8668721,21.2999163 47.2642486,24.9992454 51.4380601,24.9992454 C55.6118715,24.9992454 59.009248,21.2999163 59.009248,16.7499495 C59.009248,12.2056536 55.6118715,8.5082148 51.4380601,8.5082148 M51.4380601,26.8895515 C46.218902,26.8895515 41.9731283,22.3395847 41.9731283,16.7499495 C41.9731283,11.1622046 46.218902,6.61790867 51.4380601,6.61790867 C56.6572181,6.61790867 60.9029919,11.1622046 60.9029919,16.7499495 C60.9029919,22.3395847 56.6572181,26.8895515 51.4380601,26.8895515" id="Fill-11" fill="#3696D2"></path>
                <path d="M56.2816887,33.8625128 L56.2816887,35.9059337 C56.2816887,36.1989311 56.1055705,36.4371097 55.88779,36.4371097 L51.8313907,36.4371097 C51.6155039,36.4371097 51.4374919,36.1989311 51.4374919,35.9059337 L51.4374919,33.8625128 C51.4374919,33.567625 51.6155039,33.3294464 51.8313907,33.3294464 L55.88779,33.3294464 C56.1055705,33.3294464 56.2816887,33.567625 56.2816887,33.8625128" id="Fill-13" fill="#FEFEFE"></path>
                <mask id="mask-4" fill="white">
                    <use xlink:href="#path-3"></use>
                </mask>
                <g id="Clip-16"></g>
                <path d="M52.3847426,35.4929018 L55.3351955,35.4929018 L55.3351955,34.2736543 L52.3847426,34.2736543 L52.3847426,35.4929018 Z M55.8881688,37.3832079 L51.8317694,37.3832079 C51.0799531,37.3832079 50.4909988,36.7348329 50.4909988,35.9068788 L50.4909988,33.8634579 C50.4909988,33.0336135 51.0799531,32.3852385 51.8317694,32.3852385 L55.8881688,32.3852385 C56.6399851,32.3852385 57.2289394,33.0336135 57.2289394,33.8634579 L57.2289394,35.9068788 C57.2289394,36.7348329 56.6399851,37.3832079 55.8881688,37.3832079 L55.8881688,37.3832079 Z" id="Fill-15" fill="#70C3ED" mask="url(#mask-4)"></path>
                <path d="M40.0661282,24.243123 C39.2271997,22.2885464 37.3107309,20.9237454 35.0761131,20.9237454 C34.2182472,20.9237454 33.405831,21.1260082 32.6843146,21.4851663 C33.0971508,21.0371638 33.9038857,20.5834903 34.7068331,20.3585439 C34.1803723,18.9162403 32.8604328,17.8538883 31.2715817,17.7026638 C30.3531159,15.5401536 28.5332281,15.1998985 28.5332281,15.1998985 C29.169526,15.5420439 30.1069292,16.3189597 30.3550097,17.7196765 C30.5330216,18.7574546 30.5708965,20.0806689 30.2925161,21.6874291 C30.2830474,21.7327964 29.7944615,24.4756306 28.0957733,27.6929316 C27.9745737,27.9159878 27.8495866,28.1428245 27.7189182,28.3734418 C27.262526,29.1673704 26.7322777,29.9726408 26.1187047,30.7873628 C24.3916103,33.036827 21.9941305,35.1823245 18.693335,36.5149903 C18.693335,36.5149903 23.2648327,35.4753219 27.2985071,31.6739163 L35.0836881,31.6739163 C38.0606534,31.6739163 40.4732831,29.2656663 40.4732831,26.2941051 C40.4732831,25.5682276 40.3274648,24.8744852 40.0661282,24.243123" id="Fill-17" fill="#68BCDC" mask="url(#mask-4)"></path>
                <path d="M27.0104687,21.0008699 C27.0104687,22.0499898 26.1601777,22.9006276 25.1091498,22.9006276 C24.058122,22.9006276 23.2059372,22.0499898 23.2059372,21.0008699 C23.2059372,19.95175 24.058122,19.1030026 25.1091498,19.1030026 C26.1601777,19.1030026 27.0104687,19.95175 27.0104687,21.0008699 M23.421824,23.8344388 C25.5106235,24.8306301 26.9422939,24.3410408 28.515995,21.9346811 C29.7961659,19.9725434 30.7241004,16.919699 28.6031072,15.4925179 C26.1109403,13.813926 22.1681656,13.8592934 19.7460672,15.647523 C18.409084,16.6342628 17.8807295,18.1937653 18.653377,19.6795459 C19.2518001,20.8326327 20.6247644,22.4998827 23.421824,23.8344388" id="Fill-18" fill="#68BCDC" mask="url(#mask-4)"></path>
                <path d="M17.2402653,20.6411446 C16.9732475,19.4880579 17.0906596,18.2858232 18.1038125,17.3425605 C18.1038125,17.3425605 16.6077549,18.9171855 20.2569993,23.4104431 C20.6092357,23.8149686 20.9576845,24.2176038 21.2985584,24.6145681 L21.2985584,24.6145681 C21.664051,25.0379967 22.0257561,25.4557543 22.3760987,25.8621702 C24.8417532,28.7184227 21.0978216,31.4196702 20.732329,31.6729712 L11.7332582,31.6729712 C11.0799166,30.5765936 10.6973803,29.300637 10.6973803,27.9301651 C10.6973803,24.1514431 13.560721,21.0475605 17.2402653,20.6411446" id="Fill-19" fill="#68BCDC" mask="url(#mask-4)"></path>
            </g>
        </g>
    </g>
</svg>