<svg id="SvgjsSvg1000" xmlns="http://www.w3.org/2000/svg" version="1.1" xmlns:xlink="http://www.w3.org/1999/xlink" xmlns:svgjs="http://svgjs.com/svgjs" width="15" height="17"><defs id="SvgjsDefs1001"></defs><path id="SvgjsPath1007" d="M350.4 210.7C350.51 210.7 350.87 210.67 351.02 210.26999999999998C351.06 210.14 351.12 210.01 351.21 209.89C351.66999999999996 209.19 352.63 208.92 353.39 209.27999999999997C353.71 209.42999999999998 354.07 209.30999999999997 354.25 209.02999999999997C354.32 208.90999999999997 354.42 208.67999999999998 354.28 208.39C354.13 208.05999999999997 354.08 207.7 354.14 207.33999999999997C354.25 206.72999999999996 354.68 206.21999999999997 355.27 206.01999999999998C355.68 205.86999999999998 355.71 205.49999999999997 355.71 205.39C355.71 205.26999999999998 355.68 204.89999999999998 355.27 204.75C354.79999999999995 204.59 354.43 204.24 354.25 203.79C354.06 203.32999999999998 354.07 202.82 354.28 202.38C354.41999999999996 202.09 354.32 201.85999999999999 354.25 201.74C354.07 201.46 353.71 201.34 353.39 201.49C353.15999999999997 201.60000000000002 352.90999999999997 201.66 352.65 201.66C351.91999999999996 201.66 351.26 201.19 351.02 200.51C350.87 200.09 350.5 200.06 350.39 200.06C350.28 200.06 349.9 200.09 349.76 200.51C349.51 201.19 348.86 201.66 348.12 201.66C347.87 201.66 347.62 201.6 347.38 201.49C347.06 201.34 346.7 201.46 346.52 201.74C346.45 201.86 346.34999999999997 202.09 346.49 202.38C346.7 202.82 346.71000000000004 203.32999999999998 346.53000000000003 203.79C346.34000000000003 204.23999999999998 345.97 204.59 345.51000000000005 204.75C345.09000000000003 204.9 345.06000000000006 205.27 345.06000000000006 205.39C345.06000000000006 205.5 345.09000000000003 205.86999999999998 345.51000000000005 206.01999999999998C345.97 206.17999999999998 346.34000000000003 206.52999999999997 346.53000000000003 206.98C346.71000000000004 207.44 346.70000000000005 207.95 346.49 208.39C346.33 208.73 346.49 208.98999999999998 346.56 209.07999999999998C346.71 209.26999999999998 346.93 209.36999999999998 347.16 209.35C347.23 209.34 347.31 209.32 347.38000000000005 209.28C347.62000000000006 209.17 347.87000000000006 209.11 348.12000000000006 209.11C348.8500000000001 209.11 349.51000000000005 209.58 349.76000000000005 210.27C349.79 210.36 349.84000000000003 210.44 349.93000000000006 210.52C350.06000000000006 210.64000000000001 350.2200000000001 210.70000000000002 350.4000000000001 210.70000000000002ZM356.1 213.47L354.91 209.89C354.63000000000005 210.17 354.26000000000005 210.33999999999997 353.87 210.39C353.86 210.39 353.85 210.39 353.84000000000003 210.39C353.76000000000005 210.39999999999998 353.67 210.39999999999998 353.58000000000004 210.39999999999998C353.56000000000006 210.39999999999998 353.54 210.39999999999998 353.53000000000003 210.39999999999998C353.45000000000005 210.39 353.37 210.37999999999997 353.29 210.35999999999999C353.27000000000004 210.35 353.24 210.35 353.22 210.33999999999997C353.12 210.31999999999996 353.03000000000003 210.27999999999997 352.93 210.23999999999998C352.87 210.20999999999998 352.8 210.18999999999997 352.72 210.18999999999997C352.71000000000004 210.17999999999998 352.69000000000005 210.17999999999998 352.67 210.17999999999998C352.61 210.17999999999998 352.55 210.18999999999997 352.49 210.2C352.48 210.20999999999998 352.47 210.20999999999998 352.46000000000004 210.20999999999998C352.38000000000005 210.23 352.31000000000006 210.26999999999998 352.25000000000006 210.30999999999997L353.57000000000005 214.29999999999998L354.30000000000007 213.26999999999998C354.43000000000006 213.07999999999998 354.68000000000006 212.99999999999997 354.9000000000001 213.07999999999998ZM348.97 211.03C348.96000000000004 211.02 348.96000000000004 211 348.95000000000005 210.99C348.94000000000005 210.98000000000002 348.93000000000006 210.96 348.9200000000001 210.94C348.8500000000001 210.84 348.80000000000007 210.73 348.76000000000005 210.62C348.63000000000005 210.26 348.19000000000005 210.07 347.84000000000003 210.24C347.74 210.29000000000002 347.63000000000005 210.32000000000002 347.53000000000003 210.35000000000002C347.47 210.36 347.42 210.37000000000003 347.36 210.38000000000002C347.31 210.39000000000001 347.27000000000004 210.39000000000001 347.23 210.40000000000003C347.15000000000003 210.40000000000003 347.08000000000004 210.40000000000003 347 210.40000000000003C346.98 210.40000000000003 346.97 210.40000000000003 346.95 210.39000000000004C346.77 210.38000000000005 346.59 210.34000000000003 346.42 210.27000000000004L345.36 213.47000000000003L346.56 213.08000000000004C346.62 213.06000000000003 346.67 213.05000000000004 346.73 213.05000000000004C346.90000000000003 213.05000000000004 347.06 213.13000000000005 347.16 213.27000000000004L347.89000000000004 214.30000000000004ZM357.43 214.14C357.5 214.32999999999998 357.45 214.54 357.3 214.67999999999998C357.16 214.81999999999996 356.95 214.86999999999998 356.76 214.80999999999997L354.94 214.20999999999998L353.83 215.77999999999997C353.72999999999996 215.91999999999996 353.56 215.99999999999997 353.39 215.99999999999997C353.37 215.99999999999997 353.34 215.99999999999997 353.31 215.98999999999998C353.12 215.95999999999998 352.95 215.82999999999998 352.89 215.64L351.47999999999996 211.38C351.18999999999994 211.62 350.80999999999995 211.76 350.4 211.76C350.21999999999997 211.76 350.03999999999996 211.73 349.88 211.67999999999998L348.57 215.64C348.51 215.82999999999998 348.34 215.95999999999998 348.15 215.98999999999998C348.12 215.99999999999997 348.09 215.99999999999997 348.07 215.99999999999997C347.9 215.99999999999997 347.73 215.91999999999996 347.63 215.77999999999997L346.52 214.20999999999998L344.7 214.80999999999997C344.51 214.86999999999998 344.3 214.81999999999996 344.15999999999997 214.67999999999998C344.01 214.54 343.96 214.32999999999998 344.03 214.14L345.55999999999995 209.48C345.30999999999995 209 345.28999999999996 208.44 345.53 207.92999999999998C345.60999999999996 207.76 345.61999999999995 207.56999999999996 345.53999999999996 207.39C345.46999999999997 207.20999999999998 345.33 207.07999999999998 345.15 207.01999999999998C344.45 206.76999999999998 344 206.13 344 205.39C344 204.64 344.45 204 345.15 203.76C345.33 203.69 345.46999999999997 203.56 345.53999999999996 203.38C345.61999999999995 203.2 345.60999999999996 203.01 345.53 202.84C345.27 202.29 345.29999999999995 201.68 345.61999999999995 201.18C346.0799999999999 200.45000000000002 347.04999999999995 200.16 347.84 200.53C348.19 200.7 348.63 200.51 348.76 200.15C349 199.45000000000002 349.64 199 350.39 199C351.13 199 351.77 199.45 352.02 200.15C352.14 200.51000000000002 352.58 200.70000000000002 352.93 200.53C353.72 200.16 354.69 200.45 355.15000000000003 201.18C355.47 201.68 355.50000000000006 202.29000000000002 355.24 202.84C355.16 203.01 355.15000000000003 203.20000000000002 355.23 203.38C355.3 203.56 355.44 203.69 355.62 203.76C356.32 204 356.77 204.64 356.77 205.39C356.77 206.13 356.32 206.76999999999998 355.62 207.01999999999998C355.43 207.08999999999997 355.29 207.23999999999998 355.22 207.42999999999998Z " fill="#ffffff" fill-opacity="1" transform="matrix(1,0,0,1,-343,-199)"></path></svg>