<?xml version="1.0" encoding="UTF-8" standalone="no"?>
<svg width="81px" height="55px" viewBox="0 0 81 55" version="1.1" xmlns="http://www.w3.org/2000/svg" xmlns:xlink="http://www.w3.org/1999/xlink">
    <!-- Generator: sketchtool 39.1 (31720) - http://www.bohemiancoding.com/sketch -->
    <title>E947B5A3-9612-4C37-9F99-C128ADC1892F</title>
    <desc>Created with sketchtool.</desc>
    <defs>
        <polygon id="path-1" points="1.45587153 0.273225806 0.273389781 0.273225806 0.273389781 6.6341828 1.45587153 6.6341828"></polygon>
    </defs>
    <g id="Page-1" stroke="none" stroke-width="1" fill="none" fill-rule="evenodd">
        <g id="Sign-up---4" transform="translate(-606.000000, -406.000000)">
            <g id="il_4" transform="translate(606.000000, 406.000000)">
                <path d="M36.962665,41.1033333 C36.1875482,41.1033333 35.5566942,41.7343548 35.5566942,42.5102688 C35.5566942,43.2855914 36.1875482,43.9166129 36.962665,43.9166129 C37.738373,43.9166129 38.3686358,43.2855914 38.3686358,42.5102688 C38.3686358,41.7343548 37.738373,41.1033333 36.962665,41.1033333 M36.962665,45.0994086 C35.5354095,45.0994086 34.3742124,43.9379032 34.3742124,42.5102688 C34.3742124,41.0826344 35.5354095,39.9205376 36.962665,39.9205376 C38.3899204,39.9205376 39.5511175,41.0826344 39.5511175,42.5102688 C39.5511175,43.9379032 38.3899204,45.0994086 36.962665,45.0994086" id="Fill-1" fill="#70C3ED"></path>
                <path d="M16.7582496,3.65235484 C15.9825416,3.65235484 15.3516876,4.28337634 15.3516876,5.05929032 C15.3516876,5.8346129 15.9825416,6.46622581 16.7582496,6.46622581 C17.5339577,6.46622581 18.1648117,5.8346129 18.1648117,5.05929032 C18.1648117,4.28337634 17.5339577,3.65235484 16.7582496,3.65235484 M16.7582496,7.64902151 C15.3304029,7.64902151 14.1692058,6.48692473 14.1692058,5.05929032 C14.1692058,3.63165591 15.3304029,2.46955914 16.7582496,2.46955914 C18.1860964,2.46955914 19.3472934,3.63165591 19.3472934,5.05929032 C19.3472934,6.48692473 18.1860964,7.64902151 16.7582496,7.64902151" id="Fill-3" fill="#3D98D3"></path>
                <path d="M77.2294204,38.4443495 C76.0197416,38.4443495 75.0459679,39.3929516 75.0122672,40.6029516 C74.9791577,41.8271452 75.947019,42.849672 77.1702964,42.8833817 L77.2329679,42.8845645 C78.4426467,42.8845645 79.4164204,41.9359624 79.4495299,40.725371 C79.4832307,39.5017688 78.5153693,38.4792419 77.292092,38.4455323 L77.2294204,38.4443495 Z M77.2329679,44.0673602 L77.1377781,44.0661774 C75.262362,44.0141344 73.7789387,42.4463387 73.8303766,40.5710161 C73.8812234,38.7152097 75.3741066,37.2615538 77.2294204,37.2615538 L77.3246102,37.2627366 C79.199435,37.3147796 80.6828584,38.8825753 80.6314204,40.7578978 C80.5805737,42.6137043 79.0876905,44.0673602 77.2329679,44.0673602 L77.2329679,44.0673602 Z" id="Fill-5" fill="#3D98D3"></path>
                <path d="M62.5771117,4.36327419 L57.4007978,4.36327419 C57.0738416,4.36327419 56.8095569,4.09891935 56.8095569,3.77187634 C56.8095569,3.44483333 57.0738416,3.18047849 57.4007978,3.18047849 L62.5771117,3.18047849 C62.9034766,3.18047849 63.1683526,3.44483333 63.1683526,3.77187634 C63.1683526,4.09891935 62.9034766,4.36327419 62.5771117,4.36327419" id="Fill-7" fill="#3D98D3"></path>
                <g id="Group-11" transform="translate(59.124088, 0.318231)">
                    <mask id="mask-2" fill="white">
                        <use xlink:href="#path-1"></use>
                    </mask>
                    <g id="Clip-10"></g>
                    <path d="M0.864630657,6.6341828 C0.538265693,6.6341828 0.273389781,6.36982796 0.273389781,6.04278495 L0.273389781,0.864505376 C0.273389781,0.537462366 0.538265693,0.273107527 0.864630657,0.273107527 C1.19099562,0.273107527 1.45587153,0.537462366 1.45587153,0.864505376 L1.45587153,6.04278495 C1.45587153,6.36982796 1.19099562,6.6341828 0.864630657,6.6341828" id="Fill-9" fill="#3D98D3" mask="url(#mask-2)"></path>
                </g>
                <path d="M4.50939416,26.9842419 L0.591240876,26.9842419 C0.264875912,26.9842419 0,26.7198871 0,26.3928441 C0,26.0658011 0.264875912,25.8014462 0.591240876,25.8014462 L4.50939416,25.8014462 C4.83575912,25.8014462 5.10063504,26.0658011 5.10063504,26.3928441 C5.10063504,26.7198871 4.83575912,26.9842419 4.50939416,26.9842419" id="Fill-12" fill="#3D98D3"></path>
                <path d="M2.55031752,28.9438387 C2.22395255,28.9438387 1.95907664,28.6794839 1.95907664,28.3524409 L1.95907664,24.4332473 C1.95907664,24.1062043 2.22395255,23.8418495 2.55031752,23.8418495 C2.87668248,23.8418495 3.14155839,24.1062043 3.14155839,24.4332473 L3.14155839,28.3524409 C3.14155839,28.6794839 2.87668248,28.9438387 2.55031752,28.9438387" id="Fill-14" fill="#3D98D3"></path>
                <path d="M14.3044818,14.5971183 L59.6207299,14.5971183 C61.2466423,14.5971183 62.5769343,15.9277634 62.5769343,17.5541075 L62.5769343,50.8823333 C62.5769343,52.5086774 61.2466423,53.8393226 59.6207299,53.8393226 L14.3044818,53.8393226 C12.6785693,53.8393226 11.3482774,52.5086774 11.3482774,50.8823333 L11.3482774,17.5541075 C11.3482774,15.9277634 12.6785693,14.5971183 14.3044818,14.5971183" id="Fill-16" fill="#99D6F5"></path>
                <path d="M14.3043635,15.4843333 C13.1632686,15.4843333 12.2350204,16.412828 12.2350204,17.5542258 L12.2350204,50.8824516 C12.2350204,52.0238495 13.1632686,52.9523441 14.3043635,52.9523441 L59.6206117,52.9523441 C60.7617066,52.9523441 61.6899547,52.0238495 61.6899547,50.8824516 L61.6899547,17.5542258 C61.6899547,16.412828 60.7617066,15.4843333 59.6206117,15.4843333 L14.3043635,15.4843333 Z M59.6206117,54.7265376 L14.3043635,54.7265376 C12.1853562,54.7265376 10.4612978,53.0020215 10.4612978,50.8824516 L10.4612978,17.5542258 C10.4612978,15.4346559 12.1853562,13.7101398 14.3043635,13.7101398 L59.6206117,13.7101398 C61.739619,13.7101398 63.4636774,15.4346559 63.4636774,17.5542258 L63.4636774,50.8824516 C63.4636774,53.0020215 61.739619,54.7265376 59.6206117,54.7265376 L59.6206117,54.7265376 Z" id="Fill-18" fill="#3D98D3"></path>
                <path d="M36.962665,37.2944355 C36.1089131,37.2944355 35.308373,36.9632527 34.7076723,36.3629839 L13.6594971,15.3092204 C13.3130299,14.9626613 13.3130299,14.4014247 13.6594971,14.0548656 C14.0059642,13.7083065 14.5676431,13.7083065 14.9141102,14.0548656 L35.9622854,35.108629 C36.4938109,35.6397043 37.4327015,35.6397043 37.9630445,35.108629 L59.0112197,14.0548656 C59.3576869,13.7083065 59.9193657,13.7083065 60.2658328,14.0548656 C60.6123,14.4014247 60.6123,14.9626613 60.2658328,15.3092204 L39.2176577,36.3629839 C38.6175482,36.9632527 37.8164168,37.2944355 36.962665,37.2944355" id="Fill-20" fill="#3D98D3"></path>
                <path d="M76.4181788,21.9573602 L70.6535803,21.9573602 C70.3272153,21.9573602 70.0623394,21.6930054 70.0623394,21.3659624 C70.0623394,21.0389194 70.3272153,20.7745645 70.6535803,20.7745645 L76.4181788,20.7745645 C76.7445438,20.7745645 77.0094197,21.0389194 77.0094197,21.3659624 C77.0094197,21.6930054 76.7445438,21.9573602 76.4181788,21.9573602" id="Fill-22" fill="#3D98D3"></path>
                <path d="M36.2137993,4.36327419 L34.0806022,4.36327419 C33.753646,4.36327419 33.4893613,4.09891935 33.4893613,3.77187634 C33.4893613,3.44483333 33.753646,3.18047849 34.0806022,3.18047849 L36.2137993,3.18047849 C36.5401642,3.18047849 36.8050401,3.44483333 36.8050401,3.77187634 C36.8050401,4.09891935 36.5401642,4.36327419 36.2137993,4.36327419" id="Fill-24" fill="#3D98D3"></path>
                <path d="M38.4452015,26.010328 L40.4205372,30.0140914 C40.5854934,30.3488226 40.9047635,30.5806505 41.2742891,30.6344677 L45.6914496,31.2761344 C46.6208803,31.4115645 46.9921796,32.5541452 46.3193474,33.2100054 L43.1230993,36.326672 C42.8558584,36.5868871 42.7340628,36.9618333 42.7967343,37.3296828 L43.5517489,41.7302742 C43.7102015,42.6564032 42.7387927,43.3625323 41.9069168,42.9254892 L37.9562453,40.8479086 C37.6263328,40.6740376 37.2313839,40.6740376 36.9014715,40.8479086 L32.9508,42.9254892 C32.1189241,43.3625323 31.1475153,42.6564032 31.3059679,41.7302742 L32.0609825,37.3296828 C32.123654,36.9618333 32.0018584,36.5868871 31.7346175,36.326672 L28.5383693,33.2100054 C27.8655372,32.5541452 28.2368365,31.4115645 29.1662672,31.2761344 L33.584019,30.6344677 C33.9529533,30.5806505 34.2722234,30.3488226 34.4371796,30.0140914 L36.4125153,26.010328 C36.8281577,25.167586 38.0295591,25.167586 38.4452015,26.010328" id="Fill-26" fill="#FEFEFE"></path>
                <path d="M37.4289175,39.8304086 C37.7552825,39.8304086 38.080465,39.9108387 38.3695818,40.0634194 L42.319662,42.1398172 C42.4308153,42.1983656 42.5514285,42.1658387 42.6276985,42.077129 C42.6744066,42.0209462 42.6909613,41.9570753 42.6773628,41.8807849 L41.9229394,37.4796022 C41.8106036,36.8249247 42.0275891,36.1560538 42.503538,35.6912151 L45.7003774,32.5745484 C45.7914285,32.4864301 45.7843336,32.3888495 45.7630489,32.3226129 C45.741173,32.2551935 45.6891438,32.1729892 45.5638007,32.1546559 L41.1466401,31.5123978 C40.4879978,31.416 39.9192241,31.0026129 39.6253774,30.4058925 L37.6500416,26.4033118 C37.5938737,26.2897634 37.4986839,26.2655161 37.4289175,26.2655161 C37.3591511,26.2655161 37.2639613,26.2897634 37.2077934,26.4033118 L35.2324577,30.4064839 C34.9386109,31.0026129 34.3698372,31.416 33.7111949,31.5123978 L29.2940343,32.1546559 C29.1686912,32.1729892 29.116662,32.2551935 29.0947861,32.3226129 C29.0735015,32.3888495 29.0664066,32.4864301 29.1574577,32.5745484 L32.3537058,35.6912151 C32.830246,36.1554624 33.0472314,36.8243333 32.9343044,37.4801935 L32.1804723,41.8807849 C32.1668737,41.9570753 32.1834285,42.0209462 32.2307277,42.077129 C32.3058153,42.1652473 32.4246547,42.198957 32.538173,42.1398172 L36.4888445,40.062828 C36.7773701,39.9108387 37.1025526,39.8304086 37.4289175,39.8304086 M42.434954,43.9453548 C42.1068153,43.9453548 41.7905015,43.8661075 41.4942898,43.7111613 L37.5436182,41.6335806 C37.4720781,41.5951398 37.3851657,41.5957312 37.314808,41.6329892 L33.3635453,43.7111613 C32.5293044,44.1493871 31.4768956,43.9335269 30.8744212,43.2203011 C30.4924796,42.7672903 30.3310708,42.1699785 30.432173,41.5809462 L31.1865964,37.1797634 C31.2001949,37.0999247 31.1735891,37.0183118 31.1156474,36.9615376 L27.9193993,33.8454624 C27.3648153,33.3043333 27.1685234,32.5106774 27.4079759,31.7737957 C27.6474285,31.036914 28.2723701,30.5099785 29.0392095,30.3987957 L33.4563701,29.7565376 C33.5367788,29.7447097 33.605954,29.6944409 33.6420197,29.6216989 L35.6173555,25.6179355 C35.9602752,24.923043 36.654392,24.4913226 37.4289175,24.4913226 C38.2034431,24.4913226 38.8975599,24.923043 39.2404796,25.6179355 L41.2158153,29.6211075 C41.251881,29.6944409 41.3210562,29.7447097 41.401465,29.7565376 L45.8186255,30.3987957 C46.585465,30.5099785 47.2104066,31.036914 47.4498591,31.7737957 C47.6893117,32.5106774 47.4930197,33.3043333 46.9384358,33.8454624 L43.7421876,36.9615376 C43.684246,37.0183118 43.6576401,37.0999247 43.6712387,37.179172 L44.425662,41.5803548 C44.5267642,42.1693871 44.3653555,42.7672903 43.9834139,43.2203011 C43.5955599,43.681 43.0309248,43.9453548 42.434954,43.9453548" id="Fill-28" fill="#3D98D3"></path>
                <path d="M21.6367555,32.5008602 L22.5768285,34.4063441 C22.6554635,34.5654301 22.8074124,34.6760215 22.9830109,34.7014516 L25.0854635,35.0072043 C25.5277117,35.0716667 25.7044927,35.6151613 25.3846314,35.9274194 L23.8633686,37.4106452 C23.7362518,37.5348387 23.677719,37.7134409 23.7078723,37.8884946 L24.0673467,39.9826344 C24.1424343,40.4232258 23.6800839,40.7597312 23.2845438,40.5515591 L21.4038066,39.5627419 C21.2471277,39.4799462 21.0591131,39.4799462 20.9018431,39.5627419 L19.0216971,40.5515591 C18.6261569,40.7597312 18.1632153,40.4232258 18.2388942,39.9826344 L18.5983686,37.8884946 C18.6279307,37.7134409 18.5699891,37.5348387 18.4428723,37.4106452 L16.9216095,35.9274194 C16.6017482,35.6151613 16.777938,35.0716667 17.2207774,35.0072043 L19.3232299,34.7014516 C19.4988285,34.6760215 19.6507774,34.5654301 19.7288212,34.4063441 L20.6694854,32.5008602 C20.8669599,32.0998925 21.4386898,32.0998925 21.6367555,32.5008602" id="Fill-30" fill="#6DBEEA"></path>
                <path d="M54.1550036,32.5008602 L55.0950766,34.4063441 C55.1737117,34.5654301 55.3256606,34.6760215 55.5012591,34.7014516 L57.6037117,35.0072043 C58.0459599,35.0716667 58.2227409,35.6151613 57.9028796,35.9274194 L56.3816168,37.4106452 C56.2545,37.5348387 56.1959672,37.7134409 56.2261204,37.8884946 L56.5855949,39.9826344 C56.6606825,40.4232258 56.1983321,40.7597312 55.802792,40.5515591 L53.9220547,39.5627419 C53.7653759,39.4799462 53.5773613,39.4799462 53.4200912,39.5627419 L51.5399453,40.5515591 C51.1444051,40.7597312 50.6814635,40.4232258 50.7571423,39.9826344 L51.1166168,37.8884946 C51.1461788,37.7134409 51.0882372,37.5348387 50.9611204,37.4106452 L49.4398577,35.9274194 C49.1199964,35.6151613 49.2961861,35.0716667 49.7390255,35.0072043 L51.8414781,34.7014516 C52.0170766,34.6760215 52.1690255,34.5654301 52.2470693,34.4063441 L53.1877336,32.5008602 C53.385208,32.0998925 53.956938,32.0998925 54.1550036,32.5008602" id="Fill-32" fill="#6DBEEA"></path>
            </g>
        </g>
    </g>
</svg>