<?xml version="1.0" encoding="utf-8"?>
<!-- Generator: Adobe Illustrator 19.0.1, SVG Export Plug-In . SVG Version: 6.00 Build 0)  -->
<svg version="1.1" id="Layer_1" xmlns="http://www.w3.org/2000/svg" xmlns:xlink="http://www.w3.org/1999/xlink" x="0px" y="0px"
	 viewBox="0 0 150 150" enable-background="new 0 0 150 150" xml:space="preserve">
<g>
	<g>
		<path fill="#3A99D8" d="M75,150.097c-34.187,0-62-25.041-62-55.822c0-11.824,4.089-23.139,11.821-32.717
			c2.409-2.989,3.765-6.622,3.82-10.23c0.016-1.216-0.071-2.253-0.259-3.079c-0.456-2.018-4.168-20.094,6.606-33.327
			C42.272,5.979,54.299,1.571,70.61,1.927c1.491,0.029,6.545,0.071,7.608,0.042c16.958-0.673,29.393,3.685,36.912,12.766
			c10.964,13.246,7.218,31.48,6.753,33.514c-0.206,0.913-0.285,2.076-0.243,3.448c0.106,3.622,1.43,7.199,3.73,10.08
			C132.98,71.305,137,82.541,137,94.275C137,125.056,109.189,150.097,75,150.097z M68.951,7.314
			c-13.805,0-23.814,3.704-29.773,11.022c-7.437,9.133-6.972,22.347-5.524,28.715c0.285,1.261,0.412,2.683,0.39,4.355
			c-0.074,4.812-1.855,9.621-5.018,13.544c-6.951,8.608-10.624,18.746-10.624,29.325c0,27.8,25.389,50.419,56.597,50.419
			s56.597-22.619,56.597-50.419c0-10.494-3.614-20.566-10.447-29.127l0,0c-3.023-3.788-4.77-8.508-4.912-13.285
			c-0.058-1.823,0.069-3.44,0.375-4.804c1.467-6.432,1.921-19.738-5.645-28.879c-6.389-7.719-17.353-11.32-32.559-10.813
			c-1.105,0.042-6.352-0.005-7.904-0.037C69.982,7.319,69.463,7.314,68.951,7.314z"/>
	</g>
	<g>
		<path fill="#3A99D8" d="M92.026,55.627c-0.185,0-0.364-0.018-0.543-0.055c-12.399-2.546-23.139-2.562-32.831-0.032
			c-0.222,0.058-0.451,0.087-0.681,0.087c-13.75,0-13.75-12.233-13.75-16.839v-3.313c0-9.286,7.553-16.839,16.839-16.839
			c10.349,1.308,19.232,1.314,27.462,0.032c0.021,0,0.042,0,0.063,0c9.671,0,17.195,7.542,17.195,16.807v3.313
			C105.781,43.395,105.781,55.627,92.026,55.627z M73.979,48.249c5.751,0,11.826,0.657,18.311,1.973
			c6.115-0.077,8.088-2.899,8.088-11.433v-3.313c0-6.305-5.134-11.436-11.439-11.436c-8.331,1.324-17.704,1.327-28.225-0.021
			c-5.959,0.021-11.09,5.152-11.09,11.457v3.313c0,8.503,1.957,11.336,8.014,11.433C62.809,48.906,68.233,48.249,73.979,48.249z"/>
	</g>
	<g>
		<path fill="#3A99D8" d="M41.692,103.155c-1.493,0-2.701-1.208-2.701-2.701c0-17.543,17.657-31.818,39.357-31.818
			c1.493,0,2.704,1.208,2.704,2.701s-1.211,2.701-2.704,2.701c-18.722,0-33.955,11.848-33.955,26.415
			C44.393,101.947,43.185,103.155,41.692,103.155z"/>
	</g>
	<g>
		<path fill="#3A99D8" d="M73.757,127.109c-1.493,0-2.701-1.208-2.701-2.701s1.208-2.701,2.701-2.701
			c18.722,0,33.955-11.85,33.955-26.412c0-1.493,1.208-2.701,2.701-2.701s2.701,1.208,2.701,2.701
			C113.115,112.837,95.461,127.109,73.757,127.109z"/>
	</g>
</g>
</svg>
