<?xml version="1.0" encoding="utf-8"?>
<!-- Generator: Avocode 2.6.0 - http://avocode.com -->
<svg height="8" width="7" xmlns:xlink="http://www.w3.org/1999/xlink" xmlns="http://www.w3.org/2000/svg" viewBox="0 0 7 8">
    <path fill="#3a99d8" fill-rule="evenodd" d="M 6.35 5.24 L 3.92 7.82 Z C 3.81 7.94 3.66 8 3.51 8 C 3.36 8 3.21 7.94 3.11 7.82 L 0.67 5.24 Z C 0.45 5 0.45 4.62 0.67 4.38 C 0.9 4.14 1.26 4.15 1.49 4.38 L 2.94 5.93 Z L 2.94 0.6 Z C 2.94 0.27 3.2 -0.01 3.51 -0.01 C 3.83 -0.01 4.09 0.27 4.09 0.6 L 4.09 5.92 Z L 5.54 4.38 Z C 5.76 4.14 6.13 4.14 6.35 4.38 C 6.57 4.62 6.57 5 6.35 5.24 Z" />
</svg>