<?xml version="1.0" encoding="utf-8"?>
<!-- Generator: Avocode 2.6.0 - http://avocode.com -->
<svg height="13" width="13" xmlns:xlink="http://www.w3.org/1999/xlink" xmlns="http://www.w3.org/2000/svg" viewBox="0 0 13 13">
    <path fill="#e54d42" fill-rule="evenodd" d="M 6.15 12.34 C 2.85 12.34 0.16 9.65 0.16 6.35 C 0.16 3.04 2.85 0.36 6.15 0.36 C 9.46 0.36 12.14 3.04 12.14 6.35 C 12.14 9.65 9.46 12.34 6.15 12.34 Z M 6.15 1.32 C 3.38 1.32 1.13 3.58 1.13 6.35 C 1.13 9.12 3.38 11.37 6.15 11.37 C 8.92 11.37 11.18 9.12 11.18 6.35 C 11.18 3.58 8.92 1.32 6.15 1.32 Z M 6.17 9.72 C 5.86 9.72 5.62 9.47 5.62 9.16 C 5.62 8.85 5.86 8.61 6.17 8.61 C 6.48 8.61 6.72 8.85 6.72 9.16 C 6.72 9.47 6.48 9.72 6.17 9.72 Z M 6.15 7.8 C 5.89 7.8 5.67 7.58 5.67 7.31 L 5.67 3.44 Z C 5.67 3.17 5.89 2.96 6.15 2.96 C 6.42 2.96 6.63 3.17 6.63 3.44 L 6.63 7.31 Z C 6.63 7.58 6.42 7.8 6.15 7.8 Z" />
</svg>