<svg version="1.1" xmlns="http://www.w3.org/2000/svg" xmlns:xlink="http://www.w3.org/1999/xlink" width="14" height="19" viewBox="0 0 14 19"><path id="Forma-1-copy-7" d="M13.325,18.784 C13.325,18.784 0.675,18.784 0.675,18.784 C0.493,18.784 0.345,18.641 0.345,18.463 C0.345,18.463 0.345,2.436 0.345,2.436 C0.345,2.259 0.493,2.116 0.675,2.116 C0.675,2.116 2.425,2.116 2.425,2.116 C2.608,2.116 2.755,2.259 2.755,2.436 C2.755,2.614 2.608,2.757 2.425,2.757 C2.425,2.757 1.005,2.757 1.005,2.757 L1.005,18.142 L12.995,18.142 L12.995,2.757 C12.995,2.757 11.575,2.757 11.575,2.757 C11.393,2.757 11.245,2.614 11.245,2.436 C11.245,2.259 11.393,2.116 11.575,2.116 C11.575,2.116 13.325,2.116 13.325,2.116 C13.507,2.116 13.655,2.259 13.655,2.436 C13.655,2.436 13.655,18.463 13.655,18.463 C13.655,18.641 13.507,18.784 13.325,18.784 zM4.194,7.405 C4.194,7.405 9.806,7.405 9.806,7.405 C9.988,7.405 10.136,7.548 10.136,7.726 C10.136,7.903 9.988,8.047 9.806,8.047 C9.806,8.047 4.194,8.047 4.194,8.047 C4.012,8.047 3.864,7.903 3.864,7.726 C3.864,7.548 4.012,7.405 4.194,7.405 zM4.194,10.129 C4.194,10.129 9.806,10.129 9.806,10.129 C9.988,10.129 10.136,10.273 10.136,10.450 C10.136,10.627 9.988,10.771 9.806,10.771 C9.806,10.771 4.194,10.771 4.194,10.771 C4.012,10.771 3.864,10.627 3.864,10.450 C3.864,10.272 4.012,10.129 4.194,10.129 zM4.194,15.577 C4.194,15.577 9.806,15.577 9.806,15.577 C9.988,15.577 10.136,15.721 10.136,15.898 C10.136,16.076 9.988,16.219 9.806,16.219 C9.806,16.219 4.194,16.219 4.194,16.219 C4.012,16.219 3.864,16.076 3.864,15.898 C3.864,15.721 4.012,15.577 4.194,15.577 zM4.194,12.853 C4.194,12.853 9.806,12.853 9.806,12.853 C9.988,12.853 10.136,12.997 10.136,13.174 C10.136,13.352 9.988,13.495 9.806,13.495 C9.806,13.495 4.194,13.495 4.194,13.495 C4.012,13.495 3.864,13.352 3.864,13.174 C3.864,12.997 4.012,12.853 4.194,12.853 zM10.255,4.858 C10.255,4.858 3.745,4.858 3.745,4.858 C3.563,4.858 3.415,4.714 3.415,4.537 C3.415,4.537 3.415,1.716 3.415,1.716 C3.415,1.539 3.563,1.395 3.745,1.395 C3.745,1.395 4.819,1.395 4.819,1.395 C4.819,1.395 4.819,0.755 4.819,0.755 C4.819,0.578 4.966,0.434 5.149,0.434 C5.149,0.434 8.851,0.434 8.851,0.434 C9.033,0.434 9.181,0.578 9.181,0.755 C9.181,0.755 9.181,1.396 9.181,1.396 C9.181,1.396 10.255,1.396 10.255,1.396 C10.437,1.396 10.585,1.539 10.585,1.717 C10.585,1.717 10.585,4.537 10.585,4.537 C10.585,4.714 10.437,4.858 10.255,4.858 zM9.925,2.037 L9.925,2.037 C9.925,2.037 8.851,2.037 8.851,2.037 C8.669,2.037 8.521,1.894 8.521,1.716 C8.521,1.716 8.521,1.076 8.521,1.076 L5.479,1.076 C5.479,1.076 5.479,1.717 5.479,1.717 C5.479,1.894 5.331,2.037 5.149,2.037 C5.149,2.037 4.075,2.037 4.075,2.037 L4.075,4.216 L9.925,4.216 L9.925,2.037 zM7.000,1.767 C7.340,1.767 7.617,2.036 7.617,2.367 C7.617,2.699 7.340,2.968 7.000,2.968 C6.659,2.968 6.383,2.699 6.383,2.367 C6.383,2.036 6.659,1.767 7.000,1.767 z" fill="#000" /></svg>