<?xml version="1.0" encoding="UTF-8" standalone="no"?>
<svg
   xmlns:dc="http://purl.org/dc/elements/1.1/"
   xmlns:cc="http://creativecommons.org/ns#"
   xmlns:rdf="http://www.w3.org/1999/02/22-rdf-syntax-ns#"
   xmlns:svg="http://www.w3.org/2000/svg"
   xmlns="http://www.w3.org/2000/svg"
   viewBox="0 0 50.770802 59.748669"
   height="59.748669"
   width="50.770802"
   xml:space="preserve"
   id="svg2"
   version="1.1"><metadata
     id="metadata8"><rdf:RDF><cc:Work
         rdf:about=""><dc:format>image/svg+xml</dc:format><dc:type
           rdf:resource="http://purl.org/dc/dcmitype/StillImage" /></cc:Work></rdf:RDF></metadata><defs
     id="defs6"><clipPath
       id="clipPath18"
       clipPathUnits="userSpaceOnUse"><path
         id="path16"
         d="M 0,44.812 H 38.078 V 0 H 0 Z" /></clipPath></defs><g
     transform="matrix(1.3333333,0,0,-1.3333333,0,59.748667)"
     id="g10"><g
       id="g12"><g
         clip-path="url(#clipPath18)"
         id="g14"><g
           transform="translate(33.231,8.001)"
           id="g20"><path
             id="path22"
             style="fill:none;stroke:#ec6e61;stroke-width:1;stroke-linecap:round;stroke-linejoin:round;stroke-miterlimit:10;stroke-dasharray:none;stroke-opacity:1"
             d="m 0,0 v -3.41 h -29.321 c -1.884,0 -3.41,1.526 -3.41,3.41 v 32.901 c 0,1.883 1.526,3.41 3.41,3.41 H -3.409 0 Z" /></g><g
           transform="translate(29.8218,0.5)"
           id="g24"><path
             id="path26"
             style="fill:none;stroke:#ec6e61;stroke-width:1;stroke-linecap:round;stroke-linejoin:round;stroke-miterlimit:10;stroke-dasharray:none;stroke-opacity:1"
             d="m 0,0 h -25.912 c -1.883,0 -3.41,1.526 -3.41,3.409 v 36.993 c 0,1.883 1.527,3.41 3.41,3.41" /></g><g
           transform="translate(33.2139,41.2432)"
           id="g28"><path
             id="path30"
             style="fill:none;stroke:#ec6e61;stroke-width:1;stroke-linecap:round;stroke-linejoin:round;stroke-miterlimit:10;stroke-dasharray:none;stroke-opacity:1"
             d="M 0,0 H 4.364 V -40.743 H -27.685" /></g><path
           id="path32"
           style="fill:none;stroke:#ec6e61;stroke-width:1;stroke-linecap:round;stroke-linejoin:round;stroke-miterlimit:10;stroke-dasharray:none;stroke-opacity:1"
           d="M 27.703,26.87 H 7.953 v 9.41 h 19.75 z" /><g
           transform="translate(16.8652,32.7686)"
           id="g34"><path
             id="path36"
             style="fill:none;stroke:#ec6e61;stroke-width:1;stroke-linecap:round;stroke-linejoin:round;stroke-miterlimit:10;stroke-dasharray:none;stroke-opacity:1"
             d="M 0,0 H 7.963" /></g><g
           transform="translate(16.8652,30.7695)"
           id="g38"><path
             id="path40"
             style="fill:none;stroke:#ec6e61;stroke-width:1;stroke-linecap:round;stroke-linejoin:round;stroke-miterlimit:10;stroke-dasharray:none;stroke-opacity:1"
             d="M 0,0 H 7.963" /></g><g
           transform="translate(35.1616,39.5303)"
           id="g42"><path
             id="path44"
             style="fill:none;stroke:#ec6e61;stroke-width:1;stroke-linecap:round;stroke-linejoin:round;stroke-miterlimit:10;stroke-dasharray:none;stroke-opacity:1"
             d="M 0,0 V -36.938" /></g><g
           transform="translate(35.1616,2.5928)"
           id="g46"><path
             id="path48"
             style="fill:none;stroke:#ec6e61;stroke-width:1;stroke-linecap:round;stroke-linejoin:round;stroke-miterlimit:10;stroke-dasharray:none;stroke-opacity:1"
             d="M 0,0 H -31.208" /></g><g
           transform="translate(12.3428,31.9717)"
           id="g50"><path
             id="path52"
             style="fill:#ec6e61;fill-opacity:1;fill-rule:nonzero;stroke:none"
             d="M 0,0 C -0.153,0 -0.276,0.124 -0.276,0.276 -0.276,0.43 -0.153,0.553 0,0.553 0.153,0.553 0.277,0.43 0.277,0.276 0.277,0.124 0.153,0 0,0 m -0.204,1.242 c -0.464,0.002 -0.743,-0.276 -0.781,-0.573 -0.038,-0.292 0.675,-0.872 1,-0.872 0.348,0.022 0.663,0.474 0.661,0.95 -0.078,0.566 -0.88,0.495 -0.88,0.495" /></g><g
           transform="translate(11.3184,32.7656)"
           id="g54"><path
             id="path56"
             style="fill:#ec6e61;fill-opacity:1;fill-rule:nonzero;stroke:none"
             d="M 0,0 C 0.012,0.039 -0.138,-0.261 -0.135,-0.473 -1.514,-0.835 -0.92,-2.05 -0.92,-2.05 h 1.311 c 0.126,0.065 0.317,0.207 0.353,0.546 C 0.726,-1.045 -0.203,-0.646 0,0" /></g><g
           transform="translate(12.6616,30.7158)"
           id="g58"><path
             id="path60"
             style="fill:#ec6e61;fill-opacity:1;fill-rule:nonzero;stroke:none"
             d="m 0,0 c -0.449,-0.451 -1.234,-0.723 -1.234,-0.723 0.91,0.471 1.425,1.188 1.612,1.749 C 0.621,1.75 0.368,2.282 0.216,2.376 0.132,2.428 0.484,2.207 0.575,2.013 0.586,1.988 0.903,2.026 1.07,1.627 1.07,1.627 0.995,1.59 0.811,1.479 1.298,1.714 1.908,1.312 1.908,0.774 1.908,0.237 1.249,0 1.249,0 Z" /></g></g></g></g></svg>