<?xml version="1.0" encoding="UTF-8" standalone="no"?>
<svg width="62px" height="81px" viewBox="0 0 62 81" version="1.1" xmlns="http://www.w3.org/2000/svg" xmlns:xlink="http://www.w3.org/1999/xlink">
    <!-- Generator: sketchtool 39.1 (31720) - http://www.bohemiancoding.com/sketch -->
    <title>DC289777-D07A-4917-AA21-12F9C92D3498</title>
    <desc>Created with sketchtool.</desc>
    <defs>
        <polygon id="path-1" points="0 0.0697089912 0 2.27255987 9.7092 2.27255987 9.7092 0.0697089912"></polygon>
        <polygon id="path-3" points="2.2614746 0.79576864 0.0471888889 0.79576864 0.0471888889 10.4537277 2.2614746 10.4537277 2.2614746 0.79576864"></polygon>
    </defs>
    <g id="Page-1" stroke="none" stroke-width="1" fill="none" fill-rule="evenodd">
        <g id="Sign-up---6" transform="translate(-615.000000, -410.000000)">
            <g id="il_6" transform="translate(615.000000, 409.000000)">
                <path d="M29.9814286,14.9541521 C20.9892143,14.9541521 13.6776429,22.2301685 13.6776429,31.1759459 C13.6776429,40.1195205 20.9892143,47.3977398 29.9814286,47.3977398 C38.9736429,47.3977398 46.2874286,40.1195205 46.2874286,31.1759459 C46.2874286,22.2301685 38.9736429,14.9541521 29.9814286,14.9541521 M29.9814286,49.6005907 C19.7713571,49.6005907 11.4633571,41.3354942 11.4633571,31.1759459 C11.4633571,21.0163977 19.7713571,12.7513012 29.9814286,12.7513012 C40.1937143,12.7513012 48.5017143,21.0163977 48.5017143,31.1759459 C48.5017143,41.3354942 40.1937143,49.6005907 29.9814286,49.6005907" id="Fill-1" fill="#3696D2"></path>
                <path d="M53.0520714,42.2908706 L6.03171429,42.2908706 C5.41835714,42.2908706 4.92457143,41.797432 4.92457143,41.1894452 C4.92457143,40.5814583 5.41835714,40.0880197 6.03171429,40.0880197 L53.0520714,40.0880197 C53.6632143,40.0880197 54.1592143,40.5814583 54.1592143,41.1894452 C54.1592143,41.797432 53.6632143,42.2908706 53.0520714,42.2908706" id="Fill-3" fill="#70C3ED"></path>
                <g id="Group-7" transform="translate(0.000000, 31.393929)">
                    <mask id="mask-2" fill="white">
                        <use xlink:href="#path-1"></use>
                    </mask>
                    <g id="Clip-6"></g>
                    <path d="M8.60205714,2.27255987 L1.1067,2.27255987 C0.495557143,2.27255987 -0.000442857142,1.77912127 -0.000442857142,1.17113443 C-0.000442857142,0.563147588 0.495557143,0.0697089912 1.1067,0.0697089912 L8.60205714,0.0697089912 C9.2132,0.0697089912 9.7092,0.563147588 9.7092,1.17113443 C9.7092,1.77912127 9.2132,2.27255987 8.60205714,2.27255987" id="Fill-5" fill="#70C3ED" mask="url(#mask-2)"></path>
                </g>
                <path d="M58.85815,30.8882536 L51.3627929,30.8882536 C50.75165,30.8882536 50.25565,30.394815 50.25565,29.7868282 C50.25565,29.1788413 50.75165,28.6854027 51.3627929,28.6854027 L58.85815,28.6854027 C59.4692929,28.6854027 59.9652929,29.1788413 59.9652929,29.7868282 C59.9652929,30.394815 59.4692929,30.8882536 58.85815,30.8882536" id="Fill-8" fill="#70C3ED"></path>
                <path d="M47.7995643,20.4396913 C47.4187071,20.4396913 47.0444929,20.2436376 46.8407786,19.8889786 C46.5352071,19.3624973 46.7167786,18.6884249 47.2459929,18.3844315 L53.7382786,14.6572078 C54.2652786,14.3532144 54.9450643,14.5294424 55.2484214,15.0603295 C55.5562071,15.5868109 55.3746357,16.2608832 54.8454214,16.5648766 L48.3531357,20.2921003 C48.1782071,20.3934315 47.9877786,20.4396913 47.7995643,20.4396913" id="Fill-10" fill="#70C3ED"></path>
                <path d="M39.4636643,13.1621329 C39.27545,13.1621329 39.0850214,13.115873 38.9100929,13.0145419 C38.3808786,12.7105485 38.1993071,12.0364761 38.5048786,11.5099947 L42.2536643,5.05343882 C42.5570214,4.52695746 43.2368071,4.34852654 43.7638071,4.65031711 C44.2952357,4.95431053 44.4768071,5.62838289 44.1690214,6.15486425 L40.42245,12.6114202 C40.2187357,12.9660792 39.8445214,13.1621329 39.4636643,13.1621329" id="Fill-12" fill="#70C3ED"></path>
                <g id="Group-16" transform="translate(27.432540, 0.554017)">
                    <mask id="mask-4" fill="white">
                        <use xlink:href="#path-3"></use>
                    </mask>
                    <g id="Clip-15"></g>
                    <path d="M1.15433175,10.4537277 C0.543188889,10.4537277 0.0471888889,9.96028914 0.0471888889,9.3523023 L0.0471888889,1.89565208 C0.0471888889,1.28766524 0.543188889,0.794226645 1.15433175,0.794226645 C1.7654746,0.794226645 2.2614746,1.28766524 2.2614746,1.89565208 L2.2614746,9.3523023 C2.2614746,9.96028914 1.7654746,10.4537277 1.15433175,10.4537277" id="Fill-14" fill="#70C3ED" mask="url(#mask-4)"></path>
                </g>
                <path d="M18.0840714,14.5508101 C17.7032143,14.5508101 17.329,14.3547564 17.1252857,14.0000974 L13.3787143,7.54354145 C13.0709286,7.01706009 13.2525,6.34298772 13.7839286,6.0389943 C14.3109286,5.73720373 14.9907143,5.9134318 15.2940714,6.44211601 L19.0428571,12.8986719 C19.3484286,13.4251533 19.1668571,14.0992257 18.6376429,14.4032191 C18.4627143,14.5045502 18.2722857,14.5508101 18.0840714,14.5508101" id="Fill-17" fill="#70C3ED"></path>
                <path d="M10.7687357,22.8447639 C10.5805214,22.8447639 10.3900929,22.7985041 10.2151643,22.6971729 L3.72509286,18.9699492 C3.19587857,18.6659558 3.01430714,17.9918834 3.32209286,17.4654021 C3.62545,16.9389207 4.30523571,16.7626927 4.83223571,17.0622804 L11.3223071,20.7895041 C11.8515214,21.0934975 12.0330929,21.7675698 11.7275214,22.2940512 C11.5238071,22.6465073 11.1495929,22.8447639 10.7687357,22.8447639" id="Fill-19" fill="#70C3ED"></path>
                <path d="M61.7048357,35.6990596 C61.7048357,43.4068349 55.9056214,56.1569357 48.7534786,56.1569357 C41.5991214,56.1569357 35.8021214,43.4068349 35.8021214,35.6990596 C35.8021214,27.9912844 41.5991214,21.7439993 48.7534786,21.7439993 C55.9056214,21.7439993 61.7048357,27.9912844 61.7048357,35.6990596" id="Fill-21" fill="#3696D2"></path>
                <path d="M49.2959786,81.2053328 C48.96605,81.2053328 48.6383357,81.0577418 48.4191214,80.7779797 C48.2973357,80.6171716 45.3921929,76.8260652 45.9059071,72.9380334 C46.1428357,71.1316957 47.0573357,69.6139315 48.6228357,68.4221891 C49.53955,67.7238854 50.0289071,66.9154391 50.1174786,65.9483876 C50.3433357,63.4811946 47.95855,60.8355707 47.9341929,60.8091365 C47.52455,60.3597549 47.5577643,59.6636541 48.0094786,59.2561266 C48.4611929,58.8485992 49.1586929,58.8794391 49.57055,59.324415 C49.6967643,59.4609918 52.6329071,62.7013854 52.3229071,66.1356299 C52.1811929,67.7326968 51.3884786,69.0918558 49.9691214,70.1712527 C48.87305,71.0061332 48.2619071,72.0040247 48.1002643,73.2222012 C47.7747643,75.7048141 49.4864071,78.5442889 50.1728357,79.429835 C50.5448357,79.9122593 50.4562643,80.6039545 49.97355,80.9762363 C49.77205,81.1304359 49.5329071,81.2053328 49.2959786,81.2053328" id="Fill-23" fill="#68BCDC"></path>
                <path d="M51.7285929,60.9860254 L51.7263786,60.9860254 L46.3412357,60.977214 C45.92495,60.977214 45.5418786,60.741509 45.3536643,60.3692272 C45.1676643,59.9969454 45.2075214,59.5519695 45.4555214,59.2171362 L48.3163786,55.3973928 C48.5333786,55.1088193 48.90095,54.9524169 49.2375214,54.9546197 C49.59845,54.965634 49.9328071,55.1506735 50.1298786,55.452464 L52.6541643,59.2810189 C52.8778071,59.618055 52.8955214,60.0520167 52.7006643,60.4088785 C52.5102357,60.7635375 52.1360214,60.9860254 51.7285929,60.9860254" id="Fill-25" fill="#68BCDC"></path>
            </g>
        </g>
    </g>
</svg>