<svg xmlns="http://www.w3.org/2000/svg" width="18" height="22" viewBox="0 0 18 22"><path fill="#000" d="M8.99 21.25c-4.67 0-8.47-3.43-8.47-7.63 0-1.62.56-3.16 1.61-4.47a2.3 2.3 0 0 0 .49-1.82c-.06-.27-.56-2.72.88-4.52C4.46 1.6 6.03 1 8.16 1h1.27c2.37-.08 4.07.53 5.09 1.8 1.44 1.81.94 4.26.88 4.53a2.34 2.34 0 0 0 .48 1.85 7.07 7.07 0 0 1 1.58 4.44c0 4.2-3.8 7.63-8.47 7.63zM8.16 1.74c-1.9 0-3.27.51-4.09 1.53-1 1.24-.93 3.03-.73 3.9a3.04 3.04 0 0 1-.63 2.45 6.33 6.33 0 0 0-1.45 4c0 3.8 3.47 6.89 7.73 6.89s7.73-3.1 7.73-6.9c0-1.42-.49-2.8-1.42-3.97a3.08 3.08 0 0 1-.62-2.47c.2-.87.26-2.66-.74-3.9-.86-1.09-2.35-1.6-4.48-1.53H8.38zm3.16 6.6l-.08-.01a9.85 9.85 0 0 0-4.58 0c-1.88 0-1.88-1.66-1.88-2.3v-.45a2.3 2.3 0 0 1 2.3-2.3c1.45.18 2.64.18 3.76 0a2.31 2.31 0 0 1 2.36 2.3v.46c0 .63 0 2.3-1.88 2.3zM8.85 7.33c.78 0 1.63.09 2.5.27.84-.01 1.1-.4 1.1-1.56v-.46c0-.86-.7-1.56-1.55-1.56-1.08.18-2.44.18-3.86 0-.82 0-1.52.7-1.52 1.56v.46c0 1.16.27 1.54 1.1 1.56.7-.18 1.45-.27 2.23-.27zm-4.41 7.5a.37.37 0 0 1-.37-.37c0-2.4 2.41-4.34 5.38-4.34a.37.37 0 1 1 0 .73c-2.56 0-4.64 1.62-4.64 3.61 0 .2-.17.37-.37.37zm4.38 3.28a.37.37 0 1 1 0-.74c2.56 0 4.64-1.62 4.64-3.61a.37.37 0 1 1 .74 0c0 2.4-2.41 4.35-5.38 4.35z"/></svg>
